<?xml version="1.0" encoding="UTF-8" standalone="no"?>
<!-- Created with Inkscape (http://www.inkscape.org/) -->

<svg
   width="72.760422mm"
   height="62.654617mm"
   viewBox="0 0 72.760422 62.654617"
   version="1.1"
   id="svg30368"
   sodipodi:docname="incline.svg"
   inkscape:version="1.2.1 (1:1.2.1+202210291244+9c6d41e410)"
   xmlns:inkscape="http://www.inkscape.org/namespaces/inkscape"
   xmlns:sodipodi="http://sodipodi.sourceforge.net/DTD/sodipodi-0.dtd"
   xmlns="http://www.w3.org/2000/svg"
   xmlns:svg="http://www.w3.org/2000/svg">
  <sodipodi:namedview
     id="namedview30370"
     pagecolor="#ffffff"
     bordercolor="#999999"
     borderopacity="1"
     inkscape:showpageshadow="0"
     inkscape:pageopacity="0"
     inkscape:pagecheckerboard="0"
     inkscape:deskcolor="#d1d1d1"
     inkscape:document-units="mm"
     showgrid="true"
     inkscape:zoom="2.1417558"
     inkscape:cx="191.89863"
     inkscape:cy="812.88445"
     inkscape:window-width="1920"
     inkscape:window-height="1029"
     inkscape:window-x="0"
     inkscape:window-y="27"
     inkscape:window-maximized="1"
     inkscape:current-layer="layer1">
    <inkscape:grid
       type="xygrid"
       id="grid30415"
       spacingx="1.3229167"
       spacingy="1.3229167" />
  </sodipodi:namedview>
  <defs
     id="defs30365">
    <marker
       style="overflow:visible"
       id="marker35746"
       refX="0"
       refY="0"
       orient="auto-start-reverse"
       inkscape:stockid="Arrow2"
       markerWidth="7.6999998"
       markerHeight="5.5999999"
       viewBox="0 0 7.7 5.6"
       inkscape:isstock="true"
       inkscape:collect="always"
       preserveAspectRatio="xMidYMid">
      <path
         transform="scale(0.7)"
         d="M -2,-4 9,0 -2,4 c 2,-2.33 2,-5.66 0,-8 z"
         style="fill:context-stroke;fill-rule:evenodd;stroke:none"
         id="path35744" />
    </marker>
    <marker
       style="overflow:visible"
       id="Arrow2"
       refX="0"
       refY="0"
       orient="auto-start-reverse"
       inkscape:stockid="Arrow2"
       markerWidth="7.6999998"
       markerHeight="5.5999999"
       viewBox="0 0 7.7 5.6"
       inkscape:isstock="true"
       inkscape:collect="always"
       preserveAspectRatio="xMidYMid">
      <path
         transform="scale(0.7)"
         d="M -2,-4 9,0 -2,4 c 2,-2.33 2,-5.66 0,-8 z"
         style="fill:context-stroke;fill-rule:evenodd;stroke:none"
         id="arrow2L" />
    </marker>
    <clipPath
       id="clipPath5411">
      <path
         d="M 0,0 H 5.78125 V 8.300781 H 0 Z m 0,0"
         id="path2564" />
    </clipPath>
    <clipPath
       id="clipPath7901">
      <path
         d="M 0,0 H 6 V 7.472656 H 0 Z m 0,0"
         id="path505" />
    </clipPath>
    <clipPath
       id="clipPath4138">
      <path
         d="m 0,3 h 6 v 7.628906 H 0 Z m 0,0"
         id="path7299" />
    </clipPath>
    <clipPath
       id="clipPath4213">
      <path
         d="m 0,3 h 6 v 7.628906 H 0 Z m 0,0"
         id="path4496" />
    </clipPath>
  </defs>
  <g
     inkscape:label="Layer 1"
     inkscape:groupmode="layer"
     id="layer1"
     transform="translate(-50.378011,-179.81175)">
    <path
       style="fill:none;stroke:#000000;stroke-width:0.2;stroke-dasharray:none;stroke-dashoffset:0;marker-start:url(#Arrow2);marker-end:url(#Arrow2)"
       d="M 60.042932,213.2383 112.18651,190.24018"
       id="path33742"
       sodipodi:nodetypes="cc" />
    <path
       style="fill:none;stroke:#000000;stroke-width:0.2;stroke-dasharray:none;stroke-dashoffset:0;marker-start:url(#Arrow2);marker-end:url(#Arrow2)"
       d="m 78.627299,183.2709 24.667381,54.43191"
       id="path33794"
       sodipodi:nodetypes="cc" />
    <path
       style="fill:none;stroke:#000000;stroke-width:0.2;stroke-dasharray:1.2, 1.2;stroke-dashoffset:0"
       d="M 50.378011,201.3226 H 123.13842"
       id="path33804" />
    <g
       inkscape:label=""
       transform="matrix(1.1074504,0,0,0.98584604,99.93348,196.59021)"
       id="g33816">
      <g
         id="g33814"
         transform="matrix(0.352778,0,0,0.352778,-0.170877,0.0422892)">
        <g
           clip-path="url(#clipPath5411)"
           clip-rule="nonzero"
           id="g33812">
          <g
             style="fill:#000000;fill-opacity:1"
             id="g33810">
            <g
               id="g33808"
               transform="translate(0,8.302)">
              <path
                 style="stroke:none"
                 d="m 5.296875,-6.015625 c 0,-1.21875 -0.390625,-2.40625 -1.359375,-2.40625 -1.671875,0 -3.453125,3.515625 -3.453125,6.140625 0,0.546875 0.109375,2.40625 1.375,2.40625 1.625,0 3.4375,-3.421875 3.4375,-6.140625 z m -3.625,1.6875 c 0.1875,-0.703125 0.4375,-1.703125 0.90625,-2.5625 0.390625,-0.71875 0.8125,-1.28125 1.34375,-1.28125 0.390625,0 0.65625,0.328125 0.65625,1.484375 0,0.421875 -0.03125,1.015625 -0.375,2.359375 z m 2.4375,0.359375 C 3.8125,-2.796875 3.5625,-2.046875 3.125,-1.296875 2.78125,-0.6875 2.359375,-0.125 1.859375,-0.125 1.5,-0.125 1.1875,-0.40625 1.1875,-1.59375 c 0,-0.765625 0.203125,-1.578125 0.390625,-2.375 z m 0,0"
                 id="path33806" />
            </g>
          </g>
        </g>
      </g>
    </g>
    <path
       style="fill:none;stroke:#000000;stroke-width:0.2;stroke-dasharray:none;stroke-dashoffset:0;marker-mid:url(#marker35746)"
       d="m 86.758219,201.3226 -2e-6,18.7 -2e-6,18.64253"
       id="path33828"
       sodipodi:nodetypes="ccc" />
    <path
       style="fill:none;stroke:#000000;stroke-width:0.2;stroke-dasharray:none;stroke-dashoffset:0"
       d="m 101.28287,233.27683 -14.524655,5.3883 -14.067391,-30.94826"
       id="path34750"
       sodipodi:nodetypes="cc" />
    <g
       inkscape:label=""
       transform="matrix(1.1074504,0,0,0.98584604,87.719954,208.25192)"
       id="g35834">
      <g
         id="g35832"
         transform="matrix(0.352778,0,0,0.352778,-0.170877,0.0422892)">
        <g
           clip-path="url(#clipPath5411)"
           clip-rule="nonzero"
           id="g35830">
          <g
             style="fill:#000000;fill-opacity:1"
             id="g35828">
            <g
               id="g35826"
               transform="translate(0,8.302)">
              <path
                 style="stroke:none"
                 d="m 5.296875,-6.015625 c 0,-1.21875 -0.390625,-2.40625 -1.359375,-2.40625 -1.671875,0 -3.453125,3.515625 -3.453125,6.140625 0,0.546875 0.109375,2.40625 1.375,2.40625 1.625,0 3.4375,-3.421875 3.4375,-6.140625 z m -3.625,1.6875 c 0.1875,-0.703125 0.4375,-1.703125 0.90625,-2.5625 0.390625,-0.71875 0.8125,-1.28125 1.34375,-1.28125 0.390625,0 0.65625,0.328125 0.65625,1.484375 0,0.421875 -0.03125,1.015625 -0.375,2.359375 z m 2.4375,0.359375 C 3.8125,-2.796875 3.5625,-2.046875 3.125,-1.296875 2.78125,-0.6875 2.359375,-0.125 1.859375,-0.125 1.5,-0.125 1.1875,-0.40625 1.1875,-1.59375 c 0,-0.765625 0.203125,-1.578125 0.390625,-2.375 z m 0,0"
                 id="path35824" />
            </g>
          </g>
        </g>
      </g>
    </g>
    <g
       inkscape:label=""
       transform="translate(88.331337,220.1677)"
       id="g36359">
      <g
         id="g36357"
         transform="matrix(0.352778,0,0,0.352778,-0.0771701,0.0418483)">
        <g
           clip-path="url(#clipPath7901)"
           clip-rule="nonzero"
           id="g36355">
          <g
             style="fill:#000000;fill-opacity:1"
             id="g36353">
            <g
               id="g36351"
               transform="translate(0,5.1469998)">
              <path
                 style="stroke:none"
                 d="M 4.046875,-1.515625 C 4,-1.328125 3.96875,-1.28125 3.8125,-1.09375 c -0.484375,0.625 -0.984375,0.859375 -1.359375,0.859375 -0.390625,0 -0.765625,-0.3125 -0.765625,-1.140625 0,-0.640625 0.359375,-1.96875 0.625,-2.515625 0.34375,-0.65625 0.875,-1.140625 1.375,-1.140625 0.796875,0 0.953125,0.984375 0.953125,1.046875 L 4.609375,-3.8125 Z M 4.78125,-4.484375 C 4.625,-4.828125 4.296875,-5.265625 3.6875,-5.265625 c -1.296875,0 -2.78125,1.625 -2.78125,3.40625 C 0.90625,-0.609375 1.65625,0 2.421875,0 3.0625,0 3.625,-0.5 3.84375,-0.734375 l -0.265625,1.0625 c -0.171875,0.65625 -0.25,0.96875 -0.671875,1.375 -0.484375,0.5 -0.953125,0.5 -1.203125,0.5 -0.359375,0 -0.65625,-0.03125 -0.96875,-0.125 C 1.125,1.96875 1.21875,1.640625 1.21875,1.5 c 0,-0.1875 -0.140625,-0.375 -0.40625,-0.375 -0.28125,0 -0.59375,0.234375 -0.59375,0.625 0,0.5 0.484375,0.6875 1.5,0.6875 1.546875,0 2.34375,-0.984375 2.5,-1.640625 l 1.328125,-5.34375 c 0.03125,-0.15625 0.03125,-0.171875 0.03125,-0.203125 0,-0.15625 -0.125,-0.296875 -0.3125,-0.296875 -0.28125,0 -0.453125,0.234375 -0.484375,0.5625 z m 0,0"
                 id="path36349" />
            </g>
          </g>
        </g>
      </g>
    </g>
    <g
       inkscape:label=""
       transform="rotate(-21.410231,676.89934,-117.36199)"
       id="g36554">
      <g
         id="g36552"
         transform="matrix(0.352778,0,0,0.352778,-0.0771701,0.0422892)">
        <g
           clip-path="url(#clipPath4138)"
           clip-rule="nonzero"
           id="g34">
          <g
             style="fill:#000000;fill-opacity:1"
             id="g32">
            <g
               id="use30"
               transform="translate(0,8.302)">
              <path
                 style="stroke:none"
                 d="M 4.046875,-1.515625 C 4,-1.328125 3.96875,-1.28125 3.8125,-1.09375 c -0.484375,0.625 -0.984375,0.859375 -1.359375,0.859375 -0.390625,0 -0.765625,-0.3125 -0.765625,-1.140625 0,-0.640625 0.359375,-1.96875 0.625,-2.515625 0.34375,-0.65625 0.875,-1.140625 1.375,-1.140625 0.796875,0 0.953125,0.984375 0.953125,1.046875 L 4.609375,-3.8125 Z M 4.78125,-4.484375 C 4.625,-4.828125 4.296875,-5.265625 3.6875,-5.265625 c -1.296875,0 -2.78125,1.625 -2.78125,3.40625 C 0.90625,-0.609375 1.65625,0 2.421875,0 3.0625,0 3.625,-0.5 3.84375,-0.734375 l -0.265625,1.0625 c -0.171875,0.65625 -0.25,0.96875 -0.671875,1.375 -0.484375,0.5 -0.953125,0.5 -1.203125,0.5 -0.359375,0 -0.65625,-0.03125 -0.96875,-0.125 C 1.125,1.96875 1.21875,1.640625 1.21875,1.5 c 0,-0.1875 -0.140625,-0.375 -0.40625,-0.375 -0.28125,0 -0.59375,0.234375 -0.59375,0.625 0,0.5 0.484375,0.6875 1.5,0.6875 1.546875,0 2.34375,-0.984375 2.5,-1.640625 l 1.328125,-5.34375 c 0.03125,-0.15625 0.03125,-0.171875 0.03125,-0.203125 0,-0.15625 -0.125,-0.296875 -0.3125,-0.296875 -0.28125,0 -0.453125,0.234375 -0.484375,0.5625 z m 0,0"
                 id="path53" />
            </g>
          </g>
        </g>
        <g
           style="fill:#000000;fill-opacity:1"
           id="g42">
          <g
             id="use36"
             transform="translate(8.0270004,8.302)">
            <path
               style="stroke:none"
               d="m 3.921875,-5.0625 c 0,-0.203125 0,-0.265625 -0.125,-0.265625 -0.09375,0 -0.3125,0.265625 -0.40625,0.375 -0.359375,-0.3125 -0.734375,-0.375 -1.125,-0.375 -1.4375,0 -1.875,0.78125 -1.875,1.4375 0,0.140625 0,0.5625 0.453125,0.96875 0.390625,0.34375 0.796875,0.421875 1.34375,0.53125 0.65625,0.125 0.8125,0.171875 1.109375,0.40625 0.21875,0.171875 0.375,0.4375 0.375,0.78125 C 3.671875,-0.6875 3.375,-0.125 2.3125,-0.125 1.53125,-0.125 0.953125,-0.578125 0.6875,-1.765625 0.640625,-1.984375 0.640625,-2 0.640625,-2.015625 0.609375,-2.0625 0.5625,-2.0625 0.53125,-2.0625 0.390625,-2.0625 0.390625,-2 0.390625,-1.78125 v 1.625 c 0,0.21875 0,0.28125 0.125,0.28125 0.0625,0 0.0625,-0.015625 0.265625,-0.265625 C 0.84375,-0.234375 0.84375,-0.25 1.03125,-0.4375 1.484375,0.125 2.125,0.125 2.328125,0.125 c 1.25,0 1.875,-0.703125 1.875,-1.640625 0,-0.640625 -0.390625,-1.03125 -0.5,-1.140625 -0.421875,-0.375 -0.75,-0.4375 -1.546875,-0.578125 -0.34375,-0.078125 -1.21875,-0.25 -1.21875,-0.96875 0,-0.359375 0.25,-0.90625 1.328125,-0.90625 1.296875,0 1.375,1.109375 1.390625,1.46875 0.015625,0.109375 0.09375,0.109375 0.140625,0.109375 0.125,0 0.125,-0.0625 0.125,-0.28125 z m 0,0"
               id="path57" />
          </g>
          <g
             id="use38"
             transform="translate(12.644098,8.302)">
            <path
               style="stroke:none"
               d="m 2.078125,-7.359375 c 0,-0.3125 -0.25,-0.59375 -0.578125,-0.59375 -0.3125,0 -0.578125,0.25 -0.578125,0.578125 0,0.359375 0.28125,0.578125 0.578125,0.578125 0.359375,0 0.578125,-0.296875 0.578125,-0.5625 z M 0.4375,-5.140625 v 0.34375 c 0.75,0 0.859375,0.078125 0.859375,0.65625 v 3.25 c 0,0.546875 -0.125,0.546875 -0.90625,0.546875 V 0 c 0.34375,-0.03125 0.90625,-0.03125 1.265625,-0.03125 0.125,0 0.8125,0 1.21875,0.03125 v -0.34375 c -0.765625,0 -0.8125,-0.0625 -0.8125,-0.53125 v -4.390625 z m 0,0"
               id="path61" />
          </g>
          <g
             id="use40"
             transform="translate(15.895913,8.302)">
            <path
               style="stroke:none"
               d="m 5.3125,-2.90625 c 0,-1.109375 0,-1.4375 -0.265625,-1.828125 -0.34375,-0.46875 -0.90625,-0.53125 -1.3125,-0.53125 -1.171875,0 -1.625,0.984375 -1.71875,1.21875 v -1.21875 l -1.640625,0.125 v 0.34375 c 0.8125,0 0.921875,0.09375 0.921875,0.671875 v 3.234375 c 0,0.546875 -0.140625,0.546875 -0.921875,0.546875 V 0 c 0.3125,-0.03125 0.96875,-0.03125 1.296875,-0.03125 0.34375,0 1,0 1.296875,0.03125 v -0.34375 c -0.75,0 -0.90625,0 -0.90625,-0.546875 v -2.21875 c 0,-1.25 0.828125,-1.921875 1.578125,-1.921875 0.734375,0 0.90625,0.609375 0.90625,1.34375 v 2.796875 c 0,0.546875 -0.140625,0.546875 -0.90625,0.546875 V 0 c 0.296875,-0.03125 0.953125,-0.03125 1.28125,-0.03125 0.34375,0 1,0 1.3125,0.03125 v -0.34375 c -0.609375,0 -0.90625,0 -0.921875,-0.359375 z m 0,0"
               id="path65" />
          </g>
        </g>
        <g
           style="fill:#000000;fill-opacity:1"
           id="g46">
          <g
             id="use44"
             transform="translate(24.392,8.302)">
            <path
               style="stroke:none"
               d="m 5.296875,-6.015625 c 0,-1.21875 -0.390625,-2.40625 -1.359375,-2.40625 -1.671875,0 -3.453125,3.515625 -3.453125,6.140625 0,0.546875 0.109375,2.40625 1.375,2.40625 1.625,0 3.4375,-3.421875 3.4375,-6.140625 z m -3.625,1.6875 c 0.1875,-0.703125 0.4375,-1.703125 0.90625,-2.5625 0.390625,-0.71875 0.8125,-1.28125 1.34375,-1.28125 0.390625,0 0.65625,0.328125 0.65625,1.484375 0,0.421875 -0.03125,1.015625 -0.375,2.359375 z m 2.4375,0.359375 C 3.8125,-2.796875 3.5625,-2.046875 3.125,-1.296875 2.78125,-0.6875 2.359375,-0.125 1.859375,-0.125 1.5,-0.125 1.1875,-0.40625 1.1875,-1.59375 c 0,-0.765625 0.203125,-1.578125 0.390625,-2.375 z m 0,0"
               id="path69" />
          </g>
        </g>
      </g>
    </g>
    <g
       inkscape:label=""
       transform="rotate(69.204246,-121.4143,166.24208)"
       id="g36797">
      <g
         id="g36795"
         transform="matrix(0.352778,0,0,0.352778,-0.0771701,0.0422892)">
        <g
           clip-path="url(#clipPath4213)"
           clip-rule="nonzero"
           id="g36773">
          <g
             style="fill:#000000;fill-opacity:1"
             id="g36771">
            <g
               id="g36769"
               transform="translate(0,8.302)">
              <path
                 style="stroke:none"
                 d="M 4.046875,-1.515625 C 4,-1.328125 3.96875,-1.28125 3.8125,-1.09375 c -0.484375,0.625 -0.984375,0.859375 -1.359375,0.859375 -0.390625,0 -0.765625,-0.3125 -0.765625,-1.140625 0,-0.640625 0.359375,-1.96875 0.625,-2.515625 0.34375,-0.65625 0.875,-1.140625 1.375,-1.140625 0.796875,0 0.953125,0.984375 0.953125,1.046875 L 4.609375,-3.8125 Z M 4.78125,-4.484375 C 4.625,-4.828125 4.296875,-5.265625 3.6875,-5.265625 c -1.296875,0 -2.78125,1.625 -2.78125,3.40625 C 0.90625,-0.609375 1.65625,0 2.421875,0 3.0625,0 3.625,-0.5 3.84375,-0.734375 l -0.265625,1.0625 c -0.171875,0.65625 -0.25,0.96875 -0.671875,1.375 -0.484375,0.5 -0.953125,0.5 -1.203125,0.5 -0.359375,0 -0.65625,-0.03125 -0.96875,-0.125 C 1.125,1.96875 1.21875,1.640625 1.21875,1.5 c 0,-0.1875 -0.140625,-0.375 -0.40625,-0.375 -0.28125,0 -0.59375,0.234375 -0.59375,0.625 0,0.5 0.484375,0.6875 1.5,0.6875 1.546875,0 2.34375,-0.984375 2.5,-1.640625 l 1.328125,-5.34375 c 0.03125,-0.15625 0.03125,-0.171875 0.03125,-0.203125 0,-0.15625 -0.125,-0.296875 -0.3125,-0.296875 -0.28125,0 -0.453125,0.234375 -0.484375,0.5625 z m 0,0"
                 id="path36767" />
            </g>
          </g>
        </g>
        <g
           style="fill:#000000;fill-opacity:1"
           id="g36787">
          <g
             id="g36777"
             transform="translate(8.0270004,8.302)">
            <path
               style="stroke:none"
               d="m 4.328125,-4.421875 c -0.140625,0 -0.59375,0 -0.59375,0.484375 0,0.296875 0.203125,0.5 0.5,0.5 0.265625,0 0.5,-0.171875 0.5,-0.515625 0,-0.796875 -0.84375,-1.375 -1.8125,-1.375 -1.390625,0 -2.5,1.234375 -2.5,2.75 0,1.53125 1.140625,2.703125 2.5,2.703125 1.578125,0 1.9375,-1.4375 1.9375,-1.546875 0,-0.109375 -0.09375,-0.109375 -0.125,-0.109375 -0.109375,0 -0.125,0.03125 -0.15625,0.1875 C 4.3125,-0.5 3.671875,-0.140625 3.03125,-0.140625 c -0.734375,0 -1.703125,-0.640625 -1.703125,-2.453125 0,-1.984375 1.015625,-2.46875 1.609375,-2.46875 0.453125,0 1.109375,0.171875 1.390625,0.640625 z m 0,0"
               id="path36775" />
          </g>
          <g
             id="g36781"
             transform="translate(13.229903,8.302)">
            <path
               style="stroke:none"
               d="m 5.484375,-2.5625 c 0,-1.53125 -1.171875,-2.765625 -2.5625,-2.765625 -1.421875,0 -2.5625,1.265625 -2.5625,2.765625 0,1.53125 1.1875,2.6875 2.5625,2.6875 1.40625,0 2.5625,-1.171875 2.5625,-2.6875 z m -2.5625,2.421875 c -0.4375,0 -0.96875,-0.1875 -1.3125,-0.78125 -0.328125,-0.53125 -0.34375,-1.234375 -0.34375,-1.75 0,-0.453125 0,-1.171875 0.375,-1.71875 C 1.96875,-4.90625 2.5,-5.09375 2.921875,-5.09375 c 0.453125,0 0.96875,0.21875 1.28125,0.6875 0.375,0.546875 0.375,1.296875 0.375,1.734375 0,0.421875 0,1.171875 -0.3125,1.734375 C 3.9375,-0.375 3.375,-0.140625 2.921875,-0.140625 Z m 0,0"
               id="path36779" />
          </g>
          <g
             id="g36785"
             transform="translate(19.08317,8.302)">
            <path
               style="stroke:none"
               d="m 3.921875,-5.0625 c 0,-0.203125 0,-0.265625 -0.125,-0.265625 -0.09375,0 -0.3125,0.265625 -0.40625,0.375 -0.359375,-0.3125 -0.734375,-0.375 -1.125,-0.375 -1.4375,0 -1.875,0.78125 -1.875,1.4375 0,0.140625 0,0.5625 0.453125,0.96875 0.390625,0.34375 0.796875,0.421875 1.34375,0.53125 0.65625,0.125 0.8125,0.171875 1.109375,0.40625 0.21875,0.171875 0.375,0.4375 0.375,0.78125 C 3.671875,-0.6875 3.375,-0.125 2.3125,-0.125 1.53125,-0.125 0.953125,-0.578125 0.6875,-1.765625 0.640625,-1.984375 0.640625,-2 0.640625,-2.015625 0.609375,-2.0625 0.5625,-2.0625 0.53125,-2.0625 0.390625,-2.0625 0.390625,-2 0.390625,-1.78125 v 1.625 c 0,0.21875 0,0.28125 0.125,0.28125 0.0625,0 0.0625,-0.015625 0.265625,-0.265625 C 0.84375,-0.234375 0.84375,-0.25 1.03125,-0.4375 1.484375,0.125 2.125,0.125 2.328125,0.125 c 1.25,0 1.875,-0.703125 1.875,-1.640625 0,-0.640625 -0.390625,-1.03125 -0.5,-1.140625 -0.421875,-0.375 -0.75,-0.4375 -1.546875,-0.578125 -0.34375,-0.078125 -1.21875,-0.25 -1.21875,-0.96875 0,-0.359375 0.25,-0.90625 1.328125,-0.90625 1.296875,0 1.375,1.109375 1.390625,1.46875 0.015625,0.109375 0.09375,0.109375 0.140625,0.109375 0.125,0 0.125,-0.0625 0.125,-0.28125 z m 0,0"
               id="path36783" />
          </g>
        </g>
        <g
           style="fill:#000000;fill-opacity:1"
           id="g36793">
          <g
             id="g36791"
             transform="translate(25.691999,8.302)">
            <path
               style="stroke:none"
               d="m 5.296875,-6.015625 c 0,-1.21875 -0.390625,-2.40625 -1.359375,-2.40625 -1.671875,0 -3.453125,3.515625 -3.453125,6.140625 0,0.546875 0.109375,2.40625 1.375,2.40625 1.625,0 3.4375,-3.421875 3.4375,-6.140625 z m -3.625,1.6875 c 0.1875,-0.703125 0.4375,-1.703125 0.90625,-2.5625 0.390625,-0.71875 0.8125,-1.28125 1.34375,-1.28125 0.390625,0 0.65625,0.328125 0.65625,1.484375 0,0.421875 -0.03125,1.015625 -0.375,2.359375 z m 2.4375,0.359375 C 3.8125,-2.796875 3.5625,-2.046875 3.125,-1.296875 2.78125,-0.6875 2.359375,-0.125 1.859375,-0.125 1.5,-0.125 1.1875,-0.40625 1.1875,-1.59375 c 0,-0.765625 0.203125,-1.578125 0.390625,-2.375 z m 0,0"
               id="path36789" />
          </g>
        </g>
      </g>
    </g>
    <text
       xml:space="preserve"
       style="font-size:4.23333px;font-family:Arial;-inkscape-font-specification:Arial;text-align:center;text-anchor:middle;fill:#000000;stroke:#000000;stroke-width:0.1;stroke-dasharray:none;stroke-dashoffset:0"
       x="77.048164"
       y="182.05696"
       id="text37209"><tspan
         sodipodi:role="line"
         id="tspan37207"
         style="fill:#000000;stroke-width:0.1;stroke-dasharray:none"
         x="77.048164"
         y="182.05696">y</tspan></text>
    <text
       xml:space="preserve"
       style="font-size:4.23333px;font-family:Arial;-inkscape-font-specification:Arial;text-align:center;text-anchor:middle;fill:#000000;stroke:#000000;stroke-width:0.1;stroke-dasharray:none;stroke-dashoffset:0"
       x="115.36034"
       y="190.6259"
       id="text37213"><tspan
         sodipodi:role="line"
         id="tspan37211"
         style="stroke-width:0.1"
         x="115.36034"
         y="190.6259">x</tspan></text>
  </g>
</svg>
