<?xml version="1.0" encoding="UTF-8" standalone="no"?>
<!-- Created with Inkscape (http://www.inkscape.org/) -->

<svg
   width="64.471756mm"
   height="69.767319mm"
   viewBox="0 0 64.471756 69.767319"
   version="1.1"
   id="svg24249"
   sodipodi:docname="/tmp/ink_ext_XXXXXX.svgKZQ3U1"
   xmlns:inkscape="http://www.inkscape.org/namespaces/inkscape"
   xmlns:sodipodi="http://sodipodi.sourceforge.net/DTD/sodipodi-0.dtd"
   xmlns="http://www.w3.org/2000/svg"
   xmlns:svg="http://www.w3.org/2000/svg">
  <sodipodi:namedview
     id="namedview24251"
     pagecolor="#ffffff"
     bordercolor="#999999"
     borderopacity="1"
     inkscape:showpageshadow="0"
     inkscape:pageopacity="0"
     inkscape:pagecheckerboard="0"
     inkscape:deskcolor="#d1d1d1"
     inkscape:document-units="mm"
     showgrid="true"
     inkscape:zoom="1.5144501"
     inkscape:cx="401.46586"
     inkscape:cy="552.01556"
     inkscape:window-width="1920"
     inkscape:window-height="1029"
     inkscape:window-x="0"
     inkscape:window-y="27"
     inkscape:window-maximized="1"
     inkscape:current-layer="layer1">
    <inkscape:grid
       type="xygrid"
       id="grid25459"
       spacingx="1.3229167"
       spacingy="1.3229167" />
  </sodipodi:namedview>
  <defs
     id="defs24246">
    <marker
       style="overflow:visible"
       id="Arrow2"
       refX="0"
       refY="0"
       orient="auto-start-reverse"
       inkscape:stockid="Arrow2"
       markerWidth="7.6999998"
       markerHeight="5.5999999"
       viewBox="0 0 7.7 5.6"
       inkscape:isstock="true"
       inkscape:collect="always"
       preserveAspectRatio="xMidYMid">
      <path
         transform="scale(0.7)"
         d="M -2,-4 9,0 -2,4 c 2,-2.33 2,-5.66 0,-8 z"
         style="fill:context-stroke;fill-rule:evenodd;stroke:none"
         id="arrow2L" />
    </marker>
    <clipPath
       id="clipPath1666">
      <path
         d="m 8,2 h 6 V 9.996094 H 8 Z m 0,0"
         id="path4931" />
    </clipPath>
    <clipPath
       id="clipPath6465">
      <path
         d="M 1,0 H 19 V 22.238281 H 1 Z m 0,0"
         id="path7716" />
    </clipPath>
    <clipPath
       id="clipPath7037">
      <path
         d="M 17,0 H 30.867188 V 2 H 17 Z m 0,0"
         id="path3219" />
    </clipPath>
    <clipPath
       id="clipPath9947">
      <path
         d="m 18,10 h 12.867188 v 2 H 18 Z m 0,0"
         id="path2736" />
    </clipPath>
    <clipPath
       id="clipPath4504">
      <path
         d="m 38,8 h 6 v 8.535156 h -6 z m 0,0"
         id="path5283" />
    </clipPath>
  </defs>
  <g
     inkscape:label="Layer 1"
     inkscape:groupmode="layer"
     id="layer1"
     transform="translate(-67.551012,-91.554273)">
    <path
       style="fill:#ffffff;stroke:#000000;stroke-width:0.3;stroke-linejoin:bevel;stroke-miterlimit:1;stroke-dasharray:1.8, 1.8;stroke-dashoffset:0;marker-start:url(#Arrow2);marker-end:url(#Arrow2)"
       d="M 72.760418,99.218751 V 152.13542 H 125.67708"
       id="path26187" />
    <path
       style="fill:#ffffff;stroke:#000000;stroke-width:0.5;stroke-linejoin:bevel;stroke-miterlimit:1;stroke-dasharray:none;stroke-dashoffset:0"
       d="m 72.760418,105.83333 c 40.021112,3.02852 39.687502,46.30209 39.687502,46.30209"
       id="path26985"
       sodipodi:nodetypes="cc" />
    <g
       inkscape:label=""
       transform="translate(67.551009,104.55517)"
       id="g27382">
      <g
         id="surface1"
         transform="matrix(0.352778,0,0,0.352778,-0.259071,0.0637645)">
        <g
           style="fill:#000000;fill-opacity:1"
           id="g23">
          <g
             id="use21"
             transform="translate(0,7.4130001)">
            <path
               style="stroke:none"
               d="m 2.1875,-1.390625 c 0.734375,-0.84375 1.34375,-1.375 2.203125,-2.15625 C 5.421875,-4.4375 5.875,-4.875 6.109375,-5.125 7.3125,-6.3125 7.921875,-7.3125 7.921875,-7.453125 7.921875,-7.59375 7.78125,-7.59375 7.75,-7.59375 c -0.125,0 -0.15625,0.0625 -0.25,0.1875 -0.421875,0.75 -0.84375,1.109375 -1.28125,1.109375 -0.359375,0 -0.546875,-0.15625 -0.875,-0.578125 -0.375,-0.421875 -0.65625,-0.71875 -1.15625,-0.71875 -1.265625,0 -2.015625,1.5625 -2.015625,1.921875 0,0.0625 0.015625,0.15625 0.171875,0.15625 0.140625,0 0.15625,-0.0625 0.203125,-0.1875 0.296875,-0.6875 1.125,-0.8125 1.453125,-0.8125 0.359375,0 0.703125,0.125 1.0625,0.28125 0.65625,0.28125 0.921875,0.28125 1.109375,0.28125 0.109375,0 0.1875,0 0.265625,-0.015625 -0.5625,0.671875 -1.5,1.484375 -2.265625,2.203125 l -1.75,1.59375 c -1.046875,1.0625 -1.6875,2.078125 -1.6875,2.203125 0,0.109375 0.09375,0.140625 0.203125,0.140625 0.09375,0 0.109375,-0.015625 0.234375,-0.21875 C 1.453125,-0.484375 2,-1.125 2.640625,-1.125 3,-1.125 3.171875,-1 3.515625,-0.5625 3.84375,-0.1875 4.125,0.171875 4.6875,0.171875 c 1.6875,0 2.640625,-2.1875 2.640625,-2.578125 0,-0.078125 -0.015625,-0.171875 -0.1875,-0.171875 -0.125,0 -0.15625,0.0625 -0.203125,0.234375 -0.375,1.015625 -1.390625,1.4375 -2.0625,1.4375 -0.359375,0 -0.703125,-0.125 -1.0625,-0.28125 -0.703125,-0.28125 -0.890625,-0.28125 -1.109375,-0.28125 -0.171875,0 -0.359375,0 -0.515625,0.078125 z m 0,0"
               id="path36" />
          </g>
        </g>
        <g
           clip-path="url(#clipPath1666)"
           clip-rule="nonzero"
           id="g29">
          <g
             style="fill:#000000;fill-opacity:1"
             id="g27">
            <g
               id="use25"
               transform="translate(7.8309999,9.9949999)">
              <path
                 style="stroke:none"
                 d="m 5.359375,-3.828125 c 0,-0.984375 -0.0625,-1.953125 -0.5,-2.859375 -0.484375,-1 -1.34375,-1.265625 -1.9375,-1.265625 -0.6875,0 -1.53125,0.34375 -1.984375,1.34375 -0.328125,0.75 -0.453125,1.5 -0.453125,2.78125 0,1.15625 0.09375,2.03125 0.515625,2.890625 0.46875,0.90625 1.296875,1.1875 1.921875,1.1875 1.03125,0 1.625,-0.625 1.984375,-1.3125 0.421875,-0.890625 0.453125,-2.0625 0.453125,-2.765625 z m -2.4375,3.84375 C 2.53125,0.015625 1.75,-0.203125 1.53125,-1.5 c -0.125,-0.71875 -0.125,-1.625 -0.125,-2.46875 0,-0.984375 0,-1.859375 0.1875,-2.5625 0.203125,-0.8125 0.8125,-1.171875 1.328125,-1.171875 0.453125,0 1.140625,0.265625 1.375,1.296875 0.15625,0.6875 0.15625,1.625 0.15625,2.4375 0,0.796875 0,1.703125 -0.140625,2.4375 -0.21875,1.3125 -0.984375,1.546875 -1.390625,1.546875 z m 0,0"
                 id="path40" />
            </g>
          </g>
        </g>
      </g>
    </g>
    <g
       inkscape:label=""
       transform="translate(105.89552,153.7289)"
       id="g27467">
      <g
         id="g27465"
         transform="matrix(0.352778,0,0,0.352778,-0.694531,-0.25249)">
        <g
           clip-path="url(#clipPath6465)"
           clip-rule="nonzero"
           id="g40">
          <g
             style="fill:#000000;fill-opacity:1"
             id="g38">
            <g
               id="use36"
               transform="translate(0,1.4349999)">
              <path
                 style="stroke:none"
                 d="m 7.609375,20.8125 c 0.546875,0 0.5625,-0.01563 0.75,-0.359375 l 9.8125,-20.484375 c 0.125,-0.234375 0.125,-0.28125 0.125,-0.328125 0,-0.203125 -0.140625,-0.359375 -0.359375,-0.359375 -0.234375,0 -0.3125,0.15625 -0.390625,0.359375 L 8.28125,18.9375 l -3.8125,-8.890625 -2.5,1.921875 0.265625,0.28125 1.28125,-0.96875 z m 0,0"
                 id="path67" />
            </g>
          </g>
        </g>
        <g
           clip-path="url(#clipPath7037)"
           clip-rule="nonzero"
           id="g44">
          <path
             style="fill:none;stroke:#000000;stroke-width:0.717;stroke-linecap:butt;stroke-linejoin:miter;stroke-miterlimit:10;stroke-opacity:1"
             d="M 5.9375e-4,0.00178125 H 12.934188"
             transform="matrix(1,0,0,-1,17.933,1.076)"
             id="path42" />
        </g>
        <g
           style="fill:#000000;fill-opacity:1"
           id="g48">
          <g
             id="use46"
             transform="translate(19.128,8.3030005)">
            <path
               style="stroke:none"
               d="m 1.515625,-0.96875 c 0.515625,-0.578125 0.9375,-0.953125 1.53125,-1.5 C 3.765625,-3.078125 4.078125,-3.375 4.25,-3.5625 5.078125,-4.390625 5.5,-5.078125 5.5,-5.171875 c 0,-0.09375 -0.09375,-0.09375 -0.125,-0.09375 -0.078125,0 -0.109375,0.046875 -0.15625,0.125 C 4.90625,-4.625 4.625,-4.375 4.3125,-4.375 c -0.25,0 -0.375,-0.109375 -0.609375,-0.390625 -0.25,-0.296875 -0.453125,-0.5 -0.796875,-0.5 -0.875,0 -1.40625,1.078125 -1.40625,1.328125 0,0.046875 0.015625,0.109375 0.125,0.109375 0.09375,0 0.109375,-0.046875 0.140625,-0.125 0.203125,-0.484375 0.78125,-0.5625 1,-0.5625 0.265625,0 0.5,0.078125 0.75,0.1875 0.453125,0.1875 0.640625,0.1875 0.765625,0.1875 0.078125,0 0.125,0 0.1875,0 C 4.078125,-3.6875 3.4375,-3.109375 2.890625,-2.625 L 1.6875,-1.5 c -0.734375,0.734375 -1.171875,1.4375 -1.171875,1.53125 0,0.0625 0.0625,0.09375 0.125,0.09375 0.078125,0 0.09375,-0.015625 0.171875,-0.15625 0.1875,-0.296875 0.578125,-0.75 1.015625,-0.75 0.25,0 0.375,0.09375 0.609375,0.390625 C 2.671875,-0.125 2.875,0.125 3.25,0.125 c 1.171875,0 1.84375,-1.53125 1.84375,-1.796875 0,-0.046875 -0.015625,-0.125 -0.140625,-0.125 -0.09375,0 -0.09375,0.046875 -0.140625,0.171875 -0.265625,0.703125 -0.96875,0.984375 -1.4375,0.984375 -0.25,0 -0.484375,-0.078125 -0.734375,-0.1875 -0.484375,-0.1875 -0.609375,-0.1875 -0.765625,-0.1875 -0.125,0 -0.25,0 -0.359375,0.046875 z m 0,0"
               id="path71" />
          </g>
        </g>
        <g
           style="fill:#000000;fill-opacity:1"
           id="g52">
          <g
             id="use50"
             transform="translate(24.566,10.096)">
            <path
               style="stroke:none"
               d="M 4.25,-2.875 C 4.25,-3.46875 4.21875,-4.25 3.90625,-4.921875 3.5,-5.765625 2.828125,-5.96875 2.3125,-5.96875 c -0.546875,0 -1.234375,0.203125 -1.625,1.078125 -0.28125,0.609375 -0.328125,1.34375 -0.328125,2.015625 0,0.59375 0.015625,1.453125 0.40625,2.171875 0.421875,0.75 1.125,0.90625 1.53125,0.90625 0.578125,0 1.25,-0.25 1.625,-1.078125 C 4.1875,-1.484375 4.25,-2.15625 4.25,-2.875 Z m -1.9375,2.84375 c -0.28125,0 -0.921875,-0.125 -1.09375,-1.140625 C 1.125,-1.6875 1.125,-2.46875 1.125,-2.984375 c 0,-0.609375 0,-1.3125 0.109375,-1.8125 0.1875,-0.796875 0.75,-0.953125 1.0625,-0.953125 0.34375,0 0.90625,0.1875 1.078125,1.015625 0.09375,0.484375 0.09375,1.1875 0.09375,1.75 0,0.5625 0,1.3125 -0.09375,1.84375 -0.1875,1.03125 -0.84375,1.109375 -1.0625,1.109375 z m 0,0"
               id="path75" />
          </g>
        </g>
        <g
           clip-path="url(#clipPath9947)"
           clip-rule="nonzero"
           id="g56">
          <path
             style="fill:none;stroke:#000000;stroke-width:0.717;stroke-linecap:butt;stroke-linejoin:miter;stroke-miterlimit:10;stroke-opacity:1"
             d="M 9.0625e-4,1.25e-4 H 10.543875"
             transform="matrix(1,0,0,-1,19.128,11.172)"
             id="path54" />
        </g>
        <g
           style="fill:#000000;fill-opacity:1"
           id="g60">
          <g
             id="use58"
             transform="translate(21.155001,21.413)">
            <path
               style="stroke:none"
               d="m 3.359375,-8 c 0.015625,-0.046875 0.03125,-0.109375 0.03125,-0.171875 0,-0.125 -0.109375,-0.125 -0.140625,-0.125 -0.015625,0 -0.4375,0.03125 -0.65625,0.0625 C 2.390625,-8.21875 2.21875,-8.203125 2,-8.1875 c -0.296875,0.03125 -0.375,0.03125 -0.375,0.25 0,0.125 0.125,0.125 0.234375,0.125 0.609375,0 0.609375,0.109375 0.609375,0.21875 0,0.046875 0,0.078125 -0.046875,0.296875 L 0.703125,-0.46875 C 0.65625,-0.28125 0.65625,-0.265625 0.65625,-0.1875 c 0,0.265625 0.203125,0.3125 0.328125,0.3125 0.328125,0 0.40625,-0.265625 0.5,-0.640625 L 2.046875,-2.75 c 0.859375,0.09375 1.375,0.453125 1.375,1.03125 0,0.0625 0,0.109375 -0.046875,0.296875 -0.046875,0.171875 -0.046875,0.328125 -0.046875,0.375 0,0.703125 0.46875,1.171875 1.078125,1.171875 0.546875,0 0.828125,-0.5 0.921875,-0.671875 0.25,-0.4375 0.40625,-1.109375 0.40625,-1.15625 0,-0.0625 -0.046875,-0.109375 -0.109375,-0.109375 -0.109375,0 -0.125,0.046875 -0.171875,0.234375 C 5.28125,-0.953125 5.03125,-0.125 4.421875,-0.125 4.1875,-0.125 4.03125,-0.234375 4.03125,-0.6875 c 0,-0.234375 0.046875,-0.5 0.09375,-0.671875 0.046875,-0.21875 0.046875,-0.234375 0.046875,-0.375 0,-0.703125 -0.640625,-1.09375 -1.734375,-1.234375 0.4375,-0.265625 0.859375,-0.734375 1.03125,-0.921875 0.671875,-0.765625 1.140625,-1.140625 1.6875,-1.140625 0.28125,0 0.359375,0.078125 0.4375,0.140625 -0.4375,0.046875 -0.609375,0.359375 -0.609375,0.59375 0,0.296875 0.234375,0.390625 0.390625,0.390625 0.328125,0 0.609375,-0.28125 0.609375,-0.65625 0,-0.34375 -0.265625,-0.703125 -0.8125,-0.703125 -0.65625,0 -1.1875,0.453125 -2.046875,1.421875 -0.109375,0.140625 -0.5625,0.59375 -1,0.765625 z m 0,0"
               id="path79" />
          </g>
        </g>
      </g>
    </g>
    <g
       inkscape:label=""
       transform="rotate(27.903988,-155.82185,212.29733)"
       id="g27841">
      <g
         id="g27839"
         transform="matrix(0.352778,0,0,0.352778,-0.259071,0.0878858)">
        <g
           style="fill:#000000;fill-opacity:1"
           id="g27810">
          <g
             id="use42"
             transform="translate(0,13.952)">
            <path
               style="stroke:none"
               d="m 2.1875,-1.390625 c 0.734375,-0.84375 1.34375,-1.375 2.203125,-2.15625 C 5.421875,-4.4375 5.875,-4.875 6.109375,-5.125 7.3125,-6.3125 7.921875,-7.3125 7.921875,-7.453125 7.921875,-7.59375 7.78125,-7.59375 7.75,-7.59375 c -0.125,0 -0.15625,0.0625 -0.25,0.1875 -0.421875,0.75 -0.84375,1.109375 -1.28125,1.109375 -0.359375,0 -0.546875,-0.15625 -0.875,-0.578125 -0.375,-0.421875 -0.65625,-0.71875 -1.15625,-0.71875 -1.265625,0 -2.015625,1.5625 -2.015625,1.921875 0,0.0625 0.015625,0.15625 0.171875,0.15625 0.140625,0 0.15625,-0.0625 0.203125,-0.1875 0.296875,-0.6875 1.125,-0.8125 1.453125,-0.8125 0.359375,0 0.703125,0.125 1.0625,0.28125 0.65625,0.28125 0.921875,0.28125 1.109375,0.28125 0.109375,0 0.1875,0 0.265625,-0.015625 -0.5625,0.671875 -1.5,1.484375 -2.265625,2.203125 l -1.75,1.59375 c -1.046875,1.0625 -1.6875,2.078125 -1.6875,2.203125 0,0.109375 0.09375,0.140625 0.203125,0.140625 0.09375,0 0.109375,-0.015625 0.234375,-0.21875 C 1.453125,-0.484375 2,-1.125 2.640625,-1.125 3,-1.125 3.171875,-1 3.515625,-0.5625 3.84375,-0.1875 4.125,0.171875 4.6875,0.171875 c 1.6875,0 2.640625,-2.1875 2.640625,-2.578125 0,-0.078125 -0.015625,-0.171875 -0.1875,-0.171875 -0.125,0 -0.15625,0.0625 -0.203125,0.234375 -0.375,1.015625 -1.390625,1.4375 -2.0625,1.4375 -0.359375,0 -0.703125,-0.125 -1.0625,-0.28125 -0.703125,-0.28125 -0.890625,-0.28125 -1.109375,-0.28125 -0.171875,0 -0.359375,0 -0.515625,0.078125 z m 0,0"
               id="path81" />
          </g>
        </g>
        <g
           style="fill:#000000;fill-opacity:1"
           id="g27815">
          <g
             id="g27813"
             transform="translate(13.38,13.952)">
            <path
               style="stroke:none"
               d="m 11.078125,-5.53125 c 0.25,0 0.515625,0 0.515625,-0.28125 C 11.59375,-6.125 11.296875,-6.125 11,-6.125 H 1.375 c -0.296875,0 -0.578125,0 -0.578125,0.3125 0,0.28125 0.25,0.28125 0.515625,0.28125 z M 11,-2.46875 c 0.296875,0 0.59375,0 0.59375,-0.296875 0,-0.296875 -0.265625,-0.296875 -0.515625,-0.296875 H 1.3125 c -0.265625,0 -0.515625,0 -0.515625,0.296875 0,0.296875 0.28125,0.296875 0.578125,0.296875 z m 0,0"
               id="path85" />
          </g>
        </g>
        <g
           style="fill:#000000;fill-opacity:1"
           id="g27820">
          <g
             id="g27818"
             transform="translate(30.554001,13.952)">
            <path
               style="stroke:none"
               d="m 2.1875,-1.390625 c 0.734375,-0.84375 1.34375,-1.375 2.203125,-2.15625 C 5.421875,-4.4375 5.875,-4.875 6.109375,-5.125 7.3125,-6.3125 7.921875,-7.3125 7.921875,-7.453125 7.921875,-7.59375 7.78125,-7.59375 7.75,-7.59375 c -0.125,0 -0.15625,0.0625 -0.25,0.1875 -0.421875,0.75 -0.84375,1.109375 -1.28125,1.109375 -0.359375,0 -0.546875,-0.15625 -0.875,-0.578125 -0.375,-0.421875 -0.65625,-0.71875 -1.15625,-0.71875 -1.265625,0 -2.015625,1.5625 -2.015625,1.921875 0,0.0625 0.015625,0.15625 0.171875,0.15625 0.140625,0 0.15625,-0.0625 0.203125,-0.1875 0.296875,-0.6875 1.125,-0.8125 1.453125,-0.8125 0.359375,0 0.703125,0.125 1.0625,0.28125 0.65625,0.28125 0.921875,0.28125 1.109375,0.28125 0.109375,0 0.1875,0 0.265625,-0.015625 -0.5625,0.671875 -1.5,1.484375 -2.265625,2.203125 l -1.75,1.59375 c -1.046875,1.0625 -1.6875,2.078125 -1.6875,2.203125 0,0.109375 0.09375,0.140625 0.203125,0.140625 0.09375,0 0.109375,-0.015625 0.234375,-0.21875 C 1.453125,-0.484375 2,-1.125 2.640625,-1.125 3,-1.125 3.171875,-1 3.515625,-0.5625 3.84375,-0.1875 4.125,0.171875 4.6875,0.171875 c 1.6875,0 2.640625,-2.1875 2.640625,-2.578125 0,-0.078125 -0.015625,-0.171875 -0.1875,-0.171875 -0.125,0 -0.15625,0.0625 -0.203125,0.234375 -0.375,1.015625 -1.390625,1.4375 -2.0625,1.4375 -0.359375,0 -0.703125,-0.125 -1.0625,-0.28125 -0.703125,-0.28125 -0.890625,-0.28125 -1.109375,-0.28125 -0.171875,0 -0.359375,0 -0.515625,0.078125 z m 0,0"
               id="path89" />
          </g>
        </g>
        <g
           clip-path="url(#clipPath4504)"
           clip-rule="nonzero"
           id="g58">
          <g
             style="fill:#000000;fill-opacity:1"
             id="g27824">
            <g
               id="use54"
               transform="translate(38.384998,16.534)">
              <path
                 style="stroke:none"
                 d="m 5.359375,-3.828125 c 0,-0.984375 -0.0625,-1.953125 -0.5,-2.859375 -0.484375,-1 -1.34375,-1.265625 -1.9375,-1.265625 -0.6875,0 -1.53125,0.34375 -1.984375,1.34375 -0.328125,0.75 -0.453125,1.5 -0.453125,2.78125 0,1.15625 0.09375,2.03125 0.515625,2.890625 0.46875,0.90625 1.296875,1.1875 1.921875,1.1875 1.03125,0 1.625,-0.625 1.984375,-1.3125 0.421875,-0.890625 0.453125,-2.0625 0.453125,-2.765625 z m -2.4375,3.84375 C 2.53125,0.015625 1.75,-0.203125 1.53125,-1.5 c -0.125,-0.71875 -0.125,-1.625 -0.125,-2.46875 0,-0.984375 0,-1.859375 0.1875,-2.5625 0.203125,-0.8125 0.8125,-1.171875 1.328125,-1.171875 0.453125,0 1.140625,0.265625 1.375,1.296875 0.15625,0.6875 0.15625,1.625 0.15625,2.4375 0,0.796875 0,1.703125 -0.140625,2.4375 -0.21875,1.3125 -0.984375,1.546875 -1.390625,1.546875 z m 0,0"
                 id="path93" />
            </g>
          </g>
        </g>
        <g
           style="fill:#000000;fill-opacity:1"
           id="g62">
          <g
             id="use60"
             transform="translate(48.561001,13.952)">
            <path
               style="stroke:none"
               d="m 11.34375,-3.953125 c 0.296875,0 0.609375,0 0.609375,-0.359375 0,-0.34375 -0.3125,-0.34375 -0.609375,-0.34375 h -9.3125 c -0.296875,0 -0.609375,0 -0.609375,0.34375 0,0.359375 0.3125,0.359375 0.609375,0.359375 z m 0,0"
               id="path97" />
          </g>
        </g>
        <g
           style="fill:#000000;fill-opacity:1"
           id="g66">
          <g
             id="use64"
             transform="translate(65.777,13.952)">
            <path
               style="stroke:none"
               d="m 4.84375,-11.515625 c 0.015625,-0.07813 0.046875,-0.171875 0.046875,-0.265625 0,-0.171875 -0.171875,-0.171875 -0.203125,-0.171875 -0.015625,0 -0.640625,0.0625 -0.953125,0.09375 -0.296875,0.01563 -0.546875,0.04687 -0.859375,0.0625 -0.40625,0.03125 -0.53125,0.04687 -0.53125,0.359375 0,0.171875 0.171875,0.171875 0.34375,0.171875 0.875,0 0.875,0.15625 0.875,0.328125 0,0.07813 0,0.109375 -0.078125,0.421875 l -2.46875,9.84375 c -0.0625,0.265625 -0.0625,0.296875 -0.0625,0.390625 0,0.390625 0.28125,0.453125 0.453125,0.453125 0.484375,0 0.59375,-0.375 0.734375,-0.90625 L 2.9375,-3.953125 c 1.25,0.125 1.984375,0.640625 1.984375,1.46875 0,0.109375 0,0.171875 -0.046875,0.4375 -0.078125,0.25 -0.078125,0.46875 -0.078125,0.546875 0,1 0.65625,1.671875 1.546875,1.671875 0.78125,0 1.203125,-0.71875 1.328125,-0.96875 0.375,-0.625 0.59375,-1.59375 0.59375,-1.671875 0,-0.078125 -0.0625,-0.15625 -0.171875,-0.15625 -0.15625,0 -0.171875,0.078125 -0.234375,0.359375 C 7.609375,-1.375 7.25,-0.171875 6.375,-0.171875 6.03125,-0.171875 5.796875,-0.34375 5.796875,-1 5.796875,-1.328125 5.875,-1.703125 5.9375,-1.96875 6.015625,-2.265625 6.015625,-2.296875 6.015625,-2.5 c 0,-1.015625 -0.921875,-1.578125 -2.5,-1.78125 C 4.125,-4.671875 4.75,-5.34375 5,-5.59375 5.96875,-6.703125 6.640625,-7.25 7.4375,-7.25 c 0.390625,0 0.5,0.109375 0.625,0.203125 -0.640625,0.078125 -0.875,0.515625 -0.875,0.859375 0,0.421875 0.3125,0.5625 0.5625,0.5625 0.46875,0 0.875,-0.40625 0.875,-0.953125 0,-0.5 -0.390625,-1.015625 -1.171875,-1.015625 -0.9375,0 -1.71875,0.671875 -2.9375,2.046875 C 4.34375,-5.34375 3.703125,-4.6875 3.0625,-4.4375 Z m 0,0"
               id="path101" />
          </g>
        </g>
        <g
           style="fill:#000000;fill-opacity:1"
           id="g70">
          <g
             id="use68"
             transform="translate(75.130127,13.952)">
            <path
               style="stroke:none"
               d="m 8.15625,-7.03125 c -0.546875,0.109375 -0.75,0.515625 -0.75,0.84375 0,0.421875 0.328125,0.5625 0.5625,0.5625 0.515625,0 0.875,-0.453125 0.875,-0.921875 0,-0.71875 -0.8125,-1.046875 -1.546875,-1.046875 -1.046875,0 -1.625,1.03125 -1.78125,1.359375 -0.40625,-1.296875 -1.46875,-1.359375 -1.78125,-1.359375 -1.75,0 -2.6875,2.25 -2.6875,2.640625 0,0.0625 0.078125,0.15625 0.1875,0.15625 0.140625,0 0.171875,-0.109375 0.21875,-0.171875 C 2.03125,-6.890625 3.1875,-7.25 3.6875,-7.25 c 0.765625,0 0.921875,0.71875 0.921875,1.140625 0,0.375 -0.09375,0.765625 -0.296875,1.59375 L 3.71875,-2.15625 c -0.25,1.03125 -0.75,1.984375 -1.671875,1.984375 -0.078125,0 -0.515625,0 -0.875,-0.21875 0.625,-0.125 0.75,-0.640625 0.75,-0.84375 0,-0.34375 -0.25,-0.5625 -0.578125,-0.5625 -0.40625,0 -0.859375,0.375 -0.859375,0.921875 0,0.71875 0.8125,1.046875 1.546875,1.046875 0.828125,0 1.40625,-0.65625 1.78125,-1.359375 0.265625,1.015625 1.125,1.359375 1.765625,1.359375 1.75,0 2.6875,-2.25 2.6875,-2.640625 0,-0.078125 -0.0625,-0.15625 -0.171875,-0.15625 -0.15625,0 -0.171875,0.09375 -0.21875,0.234375 -0.46875,1.515625 -1.46875,2.21875 -2.25,2.21875 -0.59375,0 -0.921875,-0.453125 -0.921875,-1.15625 0,-0.375 0.0625,-0.65625 0.34375,-1.78125 l 0.59375,-2.34375 C 5.90625,-6.484375 6.484375,-7.25 7.28125,-7.25 c 0.03125,0 0.515625,0 0.875,0.21875 z m 0,0"
               id="path105" />
          </g>
        </g>
        <g
           style="fill:#000000;fill-opacity:1"
           id="g74">
          <g
             id="use72"
             transform="translate(84.700996,7.704)">
            <path
               style="stroke:none"
               d="M 5.265625,-2.015625 H 5 c -0.046875,0.203125 -0.140625,0.875 -0.25,1.0625 C 4.65625,-0.84375 3.984375,-0.84375 3.625,-0.84375 H 1.40625 c 0.328125,-0.28125 1.0625,-1.046875 1.359375,-1.328125 1.828125,-1.671875 2.5,-2.296875 2.5,-3.484375 0,-1.375 -1.09375,-2.296875 -2.484375,-2.296875 -1.375,0 -2.203125,1.1875 -2.203125,2.21875 0,0.609375 0.53125,0.609375 0.5625,0.609375 0.265625,0 0.5625,-0.1875 0.5625,-0.5625 0,-0.34375 -0.21875,-0.5625 -0.5625,-0.5625 -0.09375,0 -0.125,0 -0.15625,0.015625 0.21875,-0.8125 0.875,-1.375 1.640625,-1.375 1.015625,0 1.640625,0.859375 1.640625,1.953125 C 4.265625,-4.640625 3.6875,-3.75 3,-2.984375 L 0.578125,-0.28125 V 0 h 4.375 z m 0,0"
               id="path109" />
          </g>
        </g>
      </g>
    </g>
    <text
       xml:space="preserve"
       style="font-size:4.23333px;font-family:sans-serif;-inkscape-font-specification:sans-serif;text-align:center;text-anchor:middle;fill:#ffffff;stroke:#000000;stroke-width:0.499999;stroke-linejoin:bevel;stroke-miterlimit:1;stroke-dasharray:none;stroke-dashoffset:0"
       x="72.422142"
       y="94.11937"
       id="text28990"><tspan
         sodipodi:role="line"
         id="tspan28988"
         style="stroke-width:0.5"
         x="72.422142"
         y="94.11937">z</tspan></text>
    <text
       xml:space="preserve"
       style="font-size:4.23333px;font-family:sans-serif;-inkscape-font-specification:sans-serif;text-align:center;text-anchor:middle;fill:#ffffff;stroke:#000000;stroke-width:0.499999;stroke-linejoin:bevel;stroke-miterlimit:1;stroke-dasharray:none;stroke-dashoffset:0"
       x="130.65862"
       y="153.92221"
       id="text28994"><tspan
         sodipodi:role="line"
         id="tspan28992"
         style="stroke-width:0.5"
         x="130.65862"
         y="153.92221">x</tspan></text>
  </g>
</svg>
