<?xml version="1.0" encoding="UTF-8" standalone="no"?>
<!-- Created with Inkscape (http://www.inkscape.org/) -->

<svg
   width="103.86124mm"
   height="67.796761mm"
   viewBox="0 0 103.86124 67.796761"
   version="1.1"
   id="svg8469"
   sodipodi:docname="/tmp/ink_ext_XXXXXX.svgM1I3U1"
   xmlns:inkscape="http://www.inkscape.org/namespaces/inkscape"
   xmlns:sodipodi="http://sodipodi.sourceforge.net/DTD/sodipodi-0.dtd"
   xmlns="http://www.w3.org/2000/svg"
   xmlns:svg="http://www.w3.org/2000/svg">
  <sodipodi:namedview
     id="namedview8471"
     pagecolor="#ffffff"
     bordercolor="#999999"
     borderopacity="1"
     inkscape:showpageshadow="0"
     inkscape:pageopacity="0"
     inkscape:pagecheckerboard="0"
     inkscape:deskcolor="#d1d1d1"
     inkscape:document-units="mm"
     showgrid="true"
     inkscape:zoom="2.1417558"
     inkscape:cx="398.27136"
     inkscape:cy="409.94403"
     inkscape:window-width="1920"
     inkscape:window-height="1029"
     inkscape:window-x="0"
     inkscape:window-y="27"
     inkscape:window-maximized="1"
     inkscape:current-layer="layer1">
    <inkscape:grid
       type="xygrid"
       id="grid11147"
       spacingx="1.3229167"
       spacingy="1.3229167" />
  </sodipodi:namedview>
  <defs
     id="defs8466">
    <marker
       style="overflow:visible"
       id="marker13429"
       refX="0"
       refY="0"
       orient="auto-start-reverse"
       inkscape:stockid="Arrow2"
       markerWidth="7.6999998"
       markerHeight="5.5999999"
       viewBox="0 0 7.7 5.6"
       inkscape:isstock="true"
       inkscape:collect="always"
       preserveAspectRatio="xMidYMid">
      <path
         transform="scale(0.7)"
         d="M -2,-4 9,0 -2,4 c 2,-2.33 2,-5.66 0,-8 z"
         style="fill:context-stroke;fill-rule:evenodd;stroke:none"
         id="path13427" />
    </marker>
    <marker
       style="overflow:visible"
       id="marker13363"
       refX="0"
       refY="0"
       orient="auto-start-reverse"
       inkscape:stockid="Arrow2"
       markerWidth="7.6999998"
       markerHeight="5.5999999"
       viewBox="0 0 7.7 5.6"
       inkscape:isstock="true"
       inkscape:collect="always"
       preserveAspectRatio="xMidYMid">
      <path
         transform="scale(0.7)"
         d="M -2,-4 9,0 -2,4 c 2,-2.33 2,-5.66 0,-8 z"
         style="fill:context-stroke;fill-rule:evenodd;stroke:none"
         id="path13361" />
    </marker>
    <marker
       style="overflow:visible"
       id="Arrow2"
       refX="0"
       refY="0"
       orient="auto-start-reverse"
       inkscape:stockid="Arrow2"
       markerWidth="7.6999998"
       markerHeight="5.5999999"
       viewBox="0 0 7.7 5.6"
       inkscape:isstock="true"
       inkscape:collect="always"
       preserveAspectRatio="xMidYMid">
      <path
         transform="scale(0.7)"
         d="M -2,-4 9,0 -2,4 c 2,-2.33 2,-5.66 0,-8 z"
         style="fill:context-stroke;fill-rule:evenodd;stroke:none"
         id="arrow2L" />
    </marker>
    <clipPath
       id="clipPath3871">
      <path
         d="M 0,0 H 4 V 12.753906 H 0 Z m 0,0"
         id="path6625" />
    </clipPath>
    <clipPath
       id="clipPath9611">
      <path
         d="m 10,2 h 6 v 7.996094 h -6 z m 0,0"
         id="path7877" />
    </clipPath>
    <clipPath
       id="clipPath5422">
      <path
         d="M 0,0 H 10 V 15.304688 H 0 Z m 0,0"
         id="path4983" />
    </clipPath>
  </defs>
  <g
     inkscape:label="Layer 1"
     inkscape:groupmode="layer"
     id="layer1"
     transform="translate(-71.212068,-70.870413)">
    <path
       style="fill:#ffffff;stroke:#000000;stroke-width:0.3;stroke-linejoin:bevel;stroke-miterlimit:1;stroke-dasharray:none;marker-start:url(#marker13363);marker-end:url(#Arrow2)"
       d="M 99.218751,72.760418 V 119.0625 h 72.760419"
       id="path13327" />
    <path
       style="fill:#ffffff;stroke:#000000;stroke-width:0.3;stroke-linejoin:bevel;stroke-miterlimit:1;stroke-dasharray:none;marker-end:url(#marker13429)"
       d="M 99.218751,119.0625 72.760418,137.58333"
       id="path13329" />
    <path
       style="fill:#ffffff;stroke:#000000;stroke-width:0.5;stroke-linejoin:bevel;stroke-miterlimit:1;stroke-dasharray:none;marker-start:url(#Arrow2);marker-end:url(#Arrow2)"
       d="m 99.218751,112.44792 v 6.61458 h 6.614579"
       id="path13491" />
    <path
       style="fill:#ffffff;stroke:#000000;stroke-width:0.499999;stroke-linejoin:bevel;stroke-miterlimit:1;stroke-dasharray:none;marker-end:url(#Arrow2)"
       d="m 99.218751,119.0625 -4.719588,3.30371"
       id="path13631"
       sodipodi:nodetypes="cc" />
    <g
       inkscape:label=""
       transform="translate(108.38802,120.90784)"
       id="g14856">
      <g
         id="surface1"
         transform="matrix(0.352778,0,0,0.352778,-0.220486,0.00202837)">
        <g
           style="fill:#000000;fill-opacity:1"
           id="g14">
          <g
             id="use12"
             transform="translate(0,9.9630003)">
            <path
               style="stroke:none"
               d="m 3.203125,-8.9375 c 0,-0.59375 -0.484375,-1.03125 -1.03125,-1.03125 -0.59375,0 -1.03125,0.484375 -1.03125,1.03125 0,0.546875 0.4375,1.03125 1.03125,1.03125 0.546875,0 1.03125,-0.4375 1.03125,-1.03125 z m -2.53125,2.59375 v 0.625 c 0.84375,0 0.953125,0 0.953125,0.5625 v 4.546875 h -1 V 0 c 0.34375,-0.03125 1.328125,-0.03125 1.71875,-0.03125 0.390625,0 1.3125,0 1.65625,0.03125 V -0.609375 H 3.109375 v -5.84375 z m 0,0"
               id="path21" />
          </g>
        </g>
      </g>
    </g>
    <g
       inkscape:label=""
       transform="translate(100.11694,104.79624)"
       id="g15698">
      <g
         id="g15696"
         transform="matrix(0.352778,0,0,0.352778,0.270095,0.00238129)">
        <g
           clip-path="url(#clipPath3871)"
           clip-rule="nonzero"
           id="g19">
          <g
             style="fill:#000000;fill-opacity:1"
             id="g17">
            <g
               id="use15"
               transform="translate(0,9.9619999)">
              <path
                 style="stroke:none"
                 d="m 3.703125,-8.9375 c 0,-0.578125 -0.46875,-1.03125 -1.03125,-1.03125 -0.578125,0 -1.03125,0.453125 -1.03125,1.03125 0,0.578125 0.453125,1.03125 1.03125,1.03125 0.5625,0 1.03125,-0.453125 1.03125,-1.03125 z M 1.125,-6.34375 v 0.625 c 0.234375,0 0.546875,0 0.765625,0.03125 0.3125,0.046875 0.3125,0.234375 0.3125,0.53125 v 5.796875 c 0,0.65625 -0.171875,1.75 -1.046875,1.75 C 0.890625,2.390625 0.703125,2.34375 0.578125,2.3125 0.640625,2.265625 0.9375,2.03125 0.9375,1.609375 c 0,-0.515625 -0.375,-0.84375 -0.84375,-0.84375 -0.5,0 -0.859375,0.34375 -0.859375,0.84375 0,0.828125 0.890625,1.265625 1.921875,1.265625 1.203125,0 2.546875,-0.75 2.546875,-2.234375 v -7.09375 z m 0,0"
                 id="path26" />
            </g>
          </g>
        </g>
      </g>
    </g>
    <g
       inkscape:label=""
       transform="translate(88.502359,119.75953)"
       id="g15793">
      <g
         id="g15791"
         transform="matrix(0.352778,0,0,0.352778,-0.176389,-0.00348379)">
        <g
           style="fill:#000000;fill-opacity:1"
           id="g15789">
          <g
             id="g15787"
             transform="translate(0,9.9630003)">
            <path
               style="stroke:none"
               d="M 4.765625,-4.015625 6.5625,-5.484375 C 6.734375,-5.625 6.90625,-5.75 7.890625,-5.75 v -0.625 c -0.375,0.03125 -0.65625,0.03125 -1.1875,0.03125 -0.375,0 -1.1875,0 -1.515625,-0.03125 v 0.625 c 0.171875,0 0.515625,0.046875 0.515625,0.15625 0,0.0625 -0.078125,0.109375 -0.109375,0.140625 l -2.609375,2.09375 v -6.59375 L 0.5,-9.84375 v 0.625 c 0.890625,0 0.984375,0 0.984375,0.5625 v 8.046875 H 0.5 V 0 c 0.328125,-0.03125 1.328125,-0.03125 1.703125,-0.03125 0.390625,0 1.375,0 1.71875,0.03125 v -0.609375 h -1 V -2.53125 C 3.15625,-2.71875 3.375,-2.890625 3.6875,-3.15625 l 1.734375,2.234375 c 0.09375,0.125 0.09375,0.140625 0.09375,0.15625 0,0.15625 -0.28125,0.15625 -0.484375,0.15625 V 0 c 0.34375,-0.03125 1.296875,-0.03125 1.6875,-0.03125 0.71875,0 0.921875,0 1.53125,0.03125 v -0.609375 c -0.234375,0 -0.515625,0 -0.671875,-0.015625 C 7.375,-0.671875 7.3125,-0.71875 7.15625,-0.921875 Z m 0,0"
               id="path15785" />
          </g>
        </g>
      </g>
    </g>
    <ellipse
       style="fill:#ffffff;stroke:#000000;stroke-width:0.499999;stroke-linejoin:bevel;stroke-miterlimit:1;stroke-dasharray:none;marker-start:url(#Arrow2)"
       id="path16258"
       cx="143.58669"
       cy="119.33272"
       rx="3.8545232"
       ry="6.7754564" />
    <ellipse
       style="fill:#ffffff;stroke:#000000;stroke-width:0.499999;stroke-linejoin:bevel;stroke-miterlimit:1;stroke-dasharray:none;marker-start:url(#Arrow2)"
       id="path16352"
       ry="3.1992507"
       rx="7.6866484"
       cy="84.674011"
       cx="99.522789" />
    <g
       inkscape:label=""
       transform="translate(148.79101,113.29001)"
       id="g17036">
      <g
         id="g17034"
         transform="matrix(0.352778,0,0,0.352778,-0.071658,0.0692767)">
        <g
           style="fill:#000000;fill-opacity:1"
           id="g23">
          <g
             id="use21"
             transform="translate(0,7.4130001)">
            <path
               style="stroke:none"
               d="m 10.234375,-6.46875 c 0,-0.5 -0.140625,-1.140625 -0.75,-1.140625 -0.34375,0 -0.734375,0.421875 -0.734375,0.78125 0,0.140625 0.0625,0.25 0.203125,0.40625 0.265625,0.296875 0.59375,0.75 0.59375,1.5625 0,0.625 -0.390625,1.609375 -0.65625,2.140625 -0.484375,0.9375 -1.28125,1.75 -2.171875,1.75 -1.09375,0 -1.5,-0.6875 -1.6875,-1.65625 0.1875,-0.4375 0.578125,-1.5625 0.578125,-2 0,-0.203125 -0.0625,-0.34375 -0.28125,-0.34375 -0.125,0 -0.265625,0.0625 -0.359375,0.203125 -0.234375,0.375 -0.453125,1.734375 -0.4375,2.09375 -0.328125,0.640625 -1.265625,1.703125 -2.359375,1.703125 -1.15625,0 -1.46875,-1.015625 -1.46875,-2 0,-1.78125 1.125,-3.34375 1.4375,-3.78125 0.171875,-0.265625 0.28125,-0.4375 0.28125,-0.46875 0,-0.109375 -0.0625,-0.3125 -0.21875,-0.3125 -0.28125,0 -0.359375,0.234375 -0.5,0.4375 -0.875,1.359375 -1.5,3.265625 -1.5,4.921875 0,1.0625 0.40625,2.34375 1.6875,2.34375 1.4375,0 2.328125,-1.21875 2.6875,-1.875 0.140625,0.96875 0.65625,1.875 1.90625,1.875 1.3125,0 2.140625,-1.15625 2.765625,-2.546875 0.4375,-1 0.984375,-3.15625 0.984375,-4.09375 z m 0,0"
               id="path36" />
          </g>
        </g>
        <g
           clip-path="url(#clipPath9611)"
           clip-rule="nonzero"
           id="g29">
          <g
             style="fill:#000000;fill-opacity:1"
             id="g27">
            <g
               id="use25"
               transform="translate(10.497,9.9949999)">
              <path
                 style="stroke:none"
                 d="m 5.359375,-3.828125 c 0,-0.984375 -0.0625,-1.953125 -0.5,-2.859375 -0.484375,-1 -1.34375,-1.265625 -1.9375,-1.265625 -0.6875,0 -1.53125,0.34375 -1.984375,1.34375 -0.328125,0.75 -0.453125,1.5 -0.453125,2.78125 0,1.15625 0.09375,2.03125 0.515625,2.890625 0.46875,0.90625 1.296875,1.1875 1.921875,1.1875 1.03125,0 1.625,-0.625 1.984375,-1.3125 0.421875,-0.890625 0.453125,-2.0625 0.453125,-2.765625 z m -2.4375,3.84375 C 2.53125,0.015625 1.75,-0.203125 1.53125,-1.5 c -0.125,-0.71875 -0.125,-1.625 -0.125,-2.46875 0,-0.984375 0,-1.859375 0.1875,-2.5625 0.203125,-0.8125 0.8125,-1.171875 1.328125,-1.171875 0.453125,0 1.140625,0.265625 1.375,1.296875 0.15625,0.6875 0.15625,1.625 0.15625,2.4375 0,0.796875 0,1.703125 -0.140625,2.4375 -0.21875,1.3125 -0.984375,1.546875 -1.390625,1.546875 z m 0,0"
                 id="path40" />
            </g>
          </g>
        </g>
      </g>
    </g>
    <g
       inkscape:label=""
       transform="translate(105.27202,74.891081)"
       id="g17180">
      <g
         id="g17178"
         transform="matrix(0.352778,0,0,0.352778,-0.174226,0.0651315)">
        <g
           clip-path="url(#clipPath5422)"
           clip-rule="nonzero"
           id="g25">
          <g
             style="fill:#000000;fill-opacity:1"
             id="g17170">
            <g
               id="g17168"
               transform="translate(0,11.956)">
              <path
                 style="stroke:none"
                 d="m 9.75,-10.015625 c 0,-1.03125 -0.875,-2.125 -2.453125,-2.125 -2.21875,0 -3.625,2.71875 -4.078125,4.515625 L 0.5,3.171875 C 0.46875,3.3125 0.5625,3.34375 0.65625,3.34375 c 0.125,0 0.203125,-0.015625 0.21875,-0.109375 l 1.203125,-4.8125 c 0.171875,0.953125 1.125,1.75 2.140625,1.75 C 6.6875,0.171875 9,-1.75 9,-4.328125 9,-4.96875 8.84375,-5.625 8.484375,-6.1875 8.28125,-6.515625 8.03125,-6.75 7.75,-6.953125 c 1.234375,-0.65625 2,-1.703125 2,-3.0625 z m -3,3.046875 c -0.28125,0.09375 -0.546875,0.140625 -0.875,0.140625 -0.25,0 -0.46875,0.015625 -0.78125,-0.09375 0.171875,-0.125 0.4375,-0.15625 0.796875,-0.15625 0.3125,0 0.625,0.03125 0.859375,0.109375 z m 2.09375,-3.203125 c 0,0.9375 -0.453125,2.3125 -1.578125,2.953125 -0.328125,-0.109375 -0.78125,-0.203125 -1.15625,-0.203125 -0.359375,0 -1.390625,-0.03125 -1.390625,0.515625 0,0.46875 0.953125,0.421875 1.234375,0.421875 0.453125,0 0.84375,-0.109375 1.265625,-0.234375 C 7.765625,-6.265625 8,-5.6875 8,-4.828125 c 0,1 -0.265625,1.8125 -0.59375,2.5625 C 6.828125,-1 5.5,-0.171875 4.3125,-0.171875 c -1.265625,0 -1.921875,-1 -1.921875,-2.171875 0,-0.15625 0,-0.375 0.078125,-0.640625 L 3.578125,-7.5 c 0.578125,-2.265625 2.015625,-4.296875 3.6875,-4.296875 1.234375,0 1.578125,0.859375 1.578125,1.625 z m 0,0"
                 id="path17166" />
            </g>
          </g>
        </g>
        <g
           style="fill:#000000;fill-opacity:1"
           id="g17176">
          <g
             id="use27"
             transform="translate(9.5159998,14.538)">
            <path
               style="stroke:none"
               d="m 5.359375,-3.828125 c 0,-0.984375 -0.0625,-1.953125 -0.5,-2.859375 -0.484375,-1 -1.34375,-1.265625 -1.9375,-1.265625 -0.6875,0 -1.53125,0.34375 -1.984375,1.34375 -0.328125,0.75 -0.453125,1.5 -0.453125,2.78125 0,1.15625 0.09375,2.03125 0.515625,2.890625 0.46875,0.90625 1.296875,1.1875 1.921875,1.1875 1.03125,0 1.625,-0.625 1.984375,-1.3125 0.421875,-0.890625 0.453125,-2.0625 0.453125,-2.765625 z m -2.4375,3.84375 C 2.53125,0.015625 1.75,-0.203125 1.53125,-1.5 c -0.125,-0.71875 -0.125,-1.625 -0.125,-2.46875 0,-0.984375 0,-1.859375 0.1875,-2.5625 0.203125,-0.8125 0.8125,-1.171875 1.328125,-1.171875 0.453125,0 1.140625,0.265625 1.375,1.296875 0.15625,0.6875 0.15625,1.625 0.15625,2.4375 0,0.796875 0,1.703125 -0.140625,2.4375 -0.21875,1.3125 -0.984375,1.546875 -1.390625,1.546875 z m 0,0"
               id="path17173" />
          </g>
        </g>
      </g>
    </g>
    <text
       xml:space="preserve"
       style="font-size:4.23333px;font-family:sans-serif;-inkscape-font-specification:sans-serif;text-align:center;text-anchor:middle;fill:#ffffff;stroke:#000000;stroke-width:0.499999;stroke-linejoin:bevel;stroke-miterlimit:1;stroke-dasharray:none"
       x="100.63995"
       y="123.53413"
       id="text17657"><tspan
         sodipodi:role="line"
         id="tspan17655"
         style="stroke-width:0.5"
         x="100.63995"
         y="123.53413">A</tspan></text>
    <text
       xml:space="preserve"
       style="font-size:4.23333px;font-family:sans-serif;-inkscape-font-specification:sans-serif;text-align:center;text-anchor:middle;fill:#ffffff;stroke:#000000;stroke-width:0.499999;stroke-linejoin:bevel;stroke-miterlimit:1;stroke-dasharray:none"
       x="173.67093"
       y="123.59225"
       id="text17711"><tspan
         sodipodi:role="line"
         id="tspan17709"
         style="stroke-width:0.5"
         x="173.67093"
         y="123.59225">B</tspan></text>
  </g>
</svg>
