<?xml version="1.0" encoding="UTF-8" standalone="no"?>
<!-- Created with Inkscape (http://www.inkscape.org/) -->

<svg
   width="210mm"
   height="297mm"
   viewBox="0 0 210 297"
   version="1.1"
   id="svg1"
   inkscape:version="1.3 (1:1.3+202307231459+0e150ed6c4)"
   sodipodi:docname="chain1.svg"
   xmlns:inkscape="http://www.inkscape.org/namespaces/inkscape"
   xmlns:sodipodi="http://sodipodi.sourceforge.net/DTD/sodipodi-0.dtd"
   xmlns="http://www.w3.org/2000/svg"
   xmlns:svg="http://www.w3.org/2000/svg">
  <sodipodi:namedview
     id="namedview1"
     pagecolor="#ffffff"
     bordercolor="#666666"
     borderopacity="1.0"
     inkscape:showpageshadow="2"
     inkscape:pageopacity="0.0"
     inkscape:pagecheckerboard="0"
     inkscape:deskcolor="#d1d1d1"
     inkscape:document-units="mm"
     inkscape:zoom="1.0242632"
     inkscape:cx="299.23949"
     inkscape:cy="382.22597"
     inkscape:window-width="1920"
     inkscape:window-height="1011"
     inkscape:window-x="0"
     inkscape:window-y="32"
     inkscape:window-maximized="1"
     inkscape:current-layer="layer1" />
  <defs
     id="defs1">
    <marker
       style="overflow:visible"
       id="marker8"
       refX="0"
       refY="0"
       orient="auto-start-reverse"
       inkscape:stockid="Concave triangle arrow"
       markerWidth="1"
       markerHeight="1"
       viewBox="0 0 1 1"
       inkscape:isstock="true"
       inkscape:collect="always"
       preserveAspectRatio="xMidYMid">
      <path
         transform="scale(0.7)"
         d="M -2,-4 9,0 -2,4 c 2,-2.33 2,-5.66 0,-8 z"
         style="fill:context-stroke;fill-rule:evenodd;stroke:none"
         id="path8" />
    </marker>
    <marker
       style="overflow:visible"
       id="marker6"
       refX="0"
       refY="0"
       orient="auto-start-reverse"
       inkscape:stockid="Concave triangle arrow"
       markerWidth="1"
       markerHeight="1"
       viewBox="0 0 1 1"
       inkscape:isstock="true"
       inkscape:collect="always"
       preserveAspectRatio="xMidYMid">
      <path
         transform="scale(0.7)"
         d="M -2,-4 9,0 -2,4 c 2,-2.33 2,-5.66 0,-8 z"
         style="fill:context-stroke;fill-rule:evenodd;stroke:none"
         id="path6" />
    </marker>
    <marker
       style="overflow:visible"
       id="ConcaveTriangle"
       refX="0"
       refY="0"
       orient="auto-start-reverse"
       inkscape:stockid="Concave triangle arrow"
       markerWidth="1"
       markerHeight="1"
       viewBox="0 0 1 1"
       inkscape:isstock="true"
       inkscape:collect="always"
       preserveAspectRatio="xMidYMid">
      <path
         transform="scale(0.7)"
         d="M -2,-4 9,0 -2,4 c 2,-2.33 2,-5.66 0,-8 z"
         style="fill:context-stroke;fill-rule:evenodd;stroke:none"
         id="path7" />
    </marker>
  </defs>
  <g
     inkscape:label="Layer 1"
     inkscape:groupmode="layer"
     id="layer1">
    <path
       style="fill:none;stroke:#000000;stroke-width:0.264583px;stroke-linecap:butt;stroke-linejoin:miter;stroke-opacity:1"
       d="m 58.105344,127.50279 c 24.716932,19.87494 48.523886,18.37751 71.129486,-0.0453"
       id="path14"
       sodipodi:nodetypes="cc" />
    <path
       style="fill:none;stroke:#000000;stroke-width:0.264583px;stroke-linecap:butt;stroke-linejoin:miter;stroke-opacity:1"
       d="m 58.022445,124.46051 c 27.421561,20.29282 43.083465,19.29445 71.293715,0.51805"
       id="path16"
       sodipodi:nodetypes="cc" />
    <path
       style="fill:none;stroke:#000000;stroke-width:0.264583px;stroke-linecap:butt;stroke-linejoin:miter;stroke-opacity:1"
       d="m 58.022444,124.46051 0.0829,3.04228"
       id="path1" />
    <path
       style="fill:none;stroke:#000000;stroke-width:0.264583px;stroke-linecap:butt;stroke-linejoin:miter;stroke-opacity:1"
       d="m 129.31616,124.97856 -0.0813,2.47893"
       id="path2" />
    <path
       style="fill:none;stroke:#000000;stroke-width:0.265;stroke-linecap:butt;stroke-linejoin:miter;stroke-opacity:1;stroke-dasharray:none;marker-end:url(#ConcaveTriangle)"
       d="m 129.27551,126.21802 24.33816,-18.22853"
       id="path3"
       sodipodi:nodetypes="cc" />
    <path
       style="fill:none;stroke:#000000;stroke-width:0.264583px;stroke-linecap:butt;stroke-linejoin:miter;stroke-opacity:1;marker-end:url(#marker6)"
       d="M 58.063894,125.98165 35.131849,107.8836"
       id="path4"
       sodipodi:nodetypes="cc" />
    <path
       style="fill:none;stroke:#000000;stroke-width:0.264583px;stroke-linecap:butt;stroke-linejoin:miter;stroke-opacity:1;marker-end:url(#marker8)"
       d="m 93.670423,140.67821 0,31.71504"
       id="path5"
       sodipodi:nodetypes="cc" />
    <path
       style="fill:none;stroke:#000000;stroke-width:0.264583px;stroke-linecap:butt;stroke-linejoin:miter;stroke-opacity:1;stroke-dasharray:1.05833197,1.05833197;stroke-dashoffset:0"
       d="m 129.27551,126.21802 h 24.90191"
       id="path9" />
    <path
       style="fill:none;stroke:#000000;stroke-width:0.264583px;stroke-linecap:butt;stroke-linejoin:miter;stroke-dasharray:1.05833, 1.05833;stroke-dashoffset:0;stroke-opacity:1"
       d="m 33.533659,126.21779 h 24.90191"
       id="path9-6" />
    <path
       style="fill:none;stroke:#000000;stroke-width:0.264583px;stroke-linecap:butt;stroke-linejoin:miter;stroke-opacity:1"
       d="m 138.81277,119.0749 c 2.04631,2.05673 3.13537,4.40222 2.91369,7.14312"
       id="path10"
       sodipodi:nodetypes="cc" />
    <path
       style="fill:none;stroke:#000000;stroke-width:0.264583px;stroke-linecap:butt;stroke-linejoin:miter;stroke-opacity:1"
       d="m 45.984614,126.21779 c -1.555123,-3.89049 1.422538,-6.85965 2.887579,-7.49026"
       id="path11"
       sodipodi:nodetypes="cc" />
    <g
       inkscape:label=""
       transform="matrix(1.5605135,0,0,1.5605135,95.534574,163.84979)"
       id="g18">
      <g
         id="g17"
         transform="matrix(0.352778,0,0,0.352778,-1.08894,-0.71045)">
        <g
           style="fill:#000000;fill-opacity:1"
           id="g5">
          <g
             id="use4"
             transform="translate(1.993,16.341999)">
            <path
               style="stroke:none"
               d="m 6.375,-12.875 c -0.515625,-1.453125 -2.140625,-1.453125 -2.40625,-1.453125 -0.125,0 -0.359375,0 -0.359375,0.203125 0,0.15625 0.125,0.1875 0.234375,0.203125 0.3125,0.04687 0.5625,0.07813 0.890625,0.6875 0.203125,0.390625 2.328125,6.5625 2.328125,6.609375 0,0.015625 -0.015625,0.03125 -0.1875,0.203125 l -5.359375,5.4375 C 1.265625,-0.75 1.09375,-0.578125 1.09375,-0.3125 c 0,0.296875 0.25,0.546875 0.578125,0.546875 0.078125,0 0.3125,-0.046875 0.4375,-0.171875 0.328125,-0.3125 3.28125,-3.921875 5.15625,-6.15625 0.546875,1.609375 1.203125,3.515625 1.84375,5.25 0.109375,0.3125 0.203125,0.59375 0.5,0.859375 0.203125,0.1875 0.25,0.1875 0.828125,0.1875 h 0.390625 c 0.07813,0 0.21875,0 0.21875,-0.15625 0,-0.09375 -0.01563,-0.109375 -0.09375,-0.1875 C 10.765625,-0.375 10.625,-0.75 10.53125,-0.984375 Z m 0,0"
               id="path13" />
          </g>
          <g
             id="use5"
             transform="translate(13.79542,16.341999)">
            <path
               style="stroke:none"
               d="m 5.25,-13.8125 c 0.015625,-0.09375 0.0625,-0.21875 0.0625,-0.3125 0,-0.203125 -0.203125,-0.203125 -0.25,-0.203125 -0.015625,0 -0.765625,0.04687 -1.140625,0.09375 -0.34375,0.01563 -0.65625,0.0625 -1.03125,0.07813 -0.5,0.04687 -0.640625,0.0625 -0.640625,0.4375 0,0.203125 0.203125,0.203125 0.421875,0.203125 1.046875,0 1.046875,0.1875 1.046875,0.40625 0,0.07813 0,0.109375 -0.109375,0.484375 l -2.5625,10.25 c -0.0625,0.234375 -0.09375,0.390625 -0.09375,0.71875 0,1.03125 0.765625,1.859375 1.8125,1.859375 0.6875,0 1.140625,-0.453125 1.46875,-1.09375 C 4.578125,-1.5625 4.875,-2.875 4.875,-2.953125 c 0,-0.109375 -0.078125,-0.1875 -0.203125,-0.1875 -0.1875,0 -0.203125,0.109375 -0.296875,0.40625 -0.375,1.4375 -0.734375,2.53125 -1.5625,2.53125 -0.625,0 -0.625,-0.671875 -0.625,-0.953125 0,-0.078125 0,-0.515625 0.140625,-1.09375 z m 0,0"
               id="path15" />
          </g>
        </g>
        <g
           style="fill:#000000;fill-opacity:1"
           id="g6">
          <g
             id="use6"
             transform="translate(20.277246,16.341999)">
            <path
               style="stroke:none"
               d="m 6.984375,-2.625 c -0.078125,0.328125 -0.125,0.421875 -0.390625,0.71875 -0.84375,1.09375 -1.71875,1.5 -2.359375,1.5 -0.6875,0 -1.328125,-0.546875 -1.328125,-1.96875 0,-1.09375 0.625,-3.40625 1.078125,-4.34375 C 4.578125,-7.875 5.515625,-8.703125 6.375,-8.703125 7.75,-8.703125 8.015625,-7 8.015625,-6.875 l -0.0625,0.28125 z M 8.265625,-7.75 C 8,-8.34375 7.421875,-9.109375 6.375,-9.109375 c -2.25,0 -4.8125,2.828125 -4.8125,5.90625 C 1.5625,-1.046875 2.875,0 4.1875,0 5.28125,0 6.265625,-0.875 6.625,-1.28125 L 6.171875,0.578125 c -0.28125,1.140625 -0.40625,1.65625 -1.15625,2.375 -0.84375,0.84375 -1.625,0.84375 -2.078125,0.84375 -0.625,0 -1.140625,-0.03125 -1.65625,-0.203125 0.65625,-0.1875 0.828125,-0.765625 0.828125,-0.984375 0,-0.34375 -0.25,-0.671875 -0.703125,-0.671875 -0.5,0 -1.03125,0.421875 -1.03125,1.09375 0,0.859375 0.84375,1.1875 2.59375,1.1875 2.671875,0 4.046875,-1.71875 4.328125,-2.828125 L 9.578125,-7.875 c 0.0625,-0.25 0.0625,-0.28125 0.0625,-0.328125 0,-0.28125 -0.21875,-0.515625 -0.53125,-0.515625 -0.5,0 -0.78125,0.421875 -0.84375,0.96875 z m 0,0"
               id="path17" />
          </g>
        </g>
      </g>
    </g>
    <g
       inkscape:label=""
       transform="matrix(1.4830171,0,0,1.4830171,39.191925,116.46822)"
       id="g19">
      <g
         id="surface1"
         transform="matrix(0.352778,0,0,0.352778,-0.99523,-0.632927)">
        <g
           style="fill:#000000;fill-opacity:1"
           id="g3">
          <g
             id="use2"
             transform="translate(1.993,16.341)">
            <path
               style="stroke:none"
               d="m 9.15625,-10.390625 c 0,-2.109375 -0.671875,-4.15625 -2.359375,-4.15625 -2.890625,0 -5.96875,6.0625 -5.96875,10.59375 0,0.953125 0.203125,4.15625 2.375,4.15625 2.8125,0 5.953125,-5.90625 5.953125,-10.59375 z m -6.265625,2.90625 c 0.3125,-1.21875 0.75,-2.953125 1.578125,-4.40625 0.671875,-1.25 1.390625,-2.234375 2.3125,-2.234375 0.671875,0 1.125,0.578125 1.125,2.5625 0,0.734375 -0.0625,1.765625 -0.65625,4.078125 z m 4.21875,0.625 c -0.515625,2.03125 -0.953125,3.328125 -1.703125,4.625 -0.59375,1.0625 -1.3125,2.03125 -2.1875,2.03125 -0.640625,0 -1.15625,-0.5 -1.15625,-2.546875 0,-1.34375 0.328125,-2.75 0.671875,-4.109375 z m 0,0"
               id="path18" />
          </g>
        </g>
      </g>
    </g>
    <g
       inkscape:label=""
       transform="matrix(1.4468588,0,0,1.4468588,143.47156,116.65637)"
       id="g23">
      <g
         id="g22"
         transform="matrix(0.352778,0,0,0.352778,-0.99523,-0.632927)">
        <g
           style="fill:#000000;fill-opacity:1"
           id="g21">
          <g
             id="g20"
             transform="translate(1.993,16.341)">
            <path
               style="stroke:none"
               d="m 9.15625,-10.390625 c 0,-2.109375 -0.671875,-4.15625 -2.359375,-4.15625 -2.890625,0 -5.96875,6.0625 -5.96875,10.59375 0,0.953125 0.203125,4.15625 2.375,4.15625 2.8125,0 5.953125,-5.90625 5.953125,-10.59375 z m -6.265625,2.90625 c 0.3125,-1.21875 0.75,-2.953125 1.578125,-4.40625 0.671875,-1.25 1.390625,-2.234375 2.3125,-2.234375 0.671875,0 1.125,0.578125 1.125,2.5625 0,0.734375 -0.0625,1.765625 -0.65625,4.078125 z m 4.21875,0.625 c -0.515625,2.03125 -0.953125,3.328125 -1.703125,4.625 -0.59375,1.0625 -1.3125,2.03125 -2.1875,2.03125 -0.640625,0 -1.15625,-0.5 -1.15625,-2.546875 0,-1.34375 0.328125,-2.75 0.671875,-4.109375 z m 0,0"
               id="path19" />
          </g>
        </g>
      </g>
    </g>
    <g
       inkscape:label=""
       transform="matrix(1.4435648,0,0,1.4435648,24.297664,98.790516)"
       id="g27">
      <g
         id="g26"
         transform="matrix(0.352778,0,0,0.352778,-1.03933,-0.722665)">
        <g
           style="fill:#000000;fill-opacity:1"
           id="g25">
          <g
             id="g24"
             transform="translate(1.993,16.111)">
            <path
               style="stroke:none"
               d="M 6.140625,-6.734375 H 8.125 c 1.5625,0 1.6875,0.359375 1.6875,0.953125 0,0.265625 -0.046875,0.5625 -0.140625,1.015625 -0.046875,0.078125 -0.0625,0.1875 -0.0625,0.21875 0,0.140625 0.078125,0.234375 0.21875,0.234375 0.171875,0 0.1875,-0.09375 0.265625,-0.421875 l 1.203125,-4.8125 c 0,-0.078125 -0.0625,-0.203125 -0.203125,-0.203125 -0.1875,0 -0.203125,0.078125 -0.296875,0.4375 -0.421875,1.546875 -0.84375,1.984375 -2.640625,1.984375 h -1.875 L 7.625,-12.6875 c 0.1875,-0.71875 0.21875,-0.78125 1.078125,-0.78125 h 2.765625 c 2.578125,0 2.953125,0.765625 2.953125,2.234375 0,0.125 0,0.578125 -0.0625,1.109375 -0.03125,0.09375 -0.0625,0.359375 -0.0625,0.4375 0,0.171875 0.09375,0.234375 0.21875,0.234375 0.15625,0 0.234375,-0.09375 0.28125,-0.46875 l 0.421875,-3.609375 c 0,-0.0625 0.04687,-0.265625 0.04687,-0.3125 0,-0.21875 -0.1875,-0.21875 -0.5625,-0.21875 H 4.92187 c -0.390625,0 -0.609375,0 -0.609375,0.375 0,0.21875 0.15625,0.21875 0.5,0.21875 1.28125,0 1.28125,0.140625 1.28125,0.375 0,0.09375 -0.015625,0.1875 -0.078125,0.40625 L 3.21875,-1.53125 C 3.03125,-0.8125 3,-0.59375 1.546875,-0.59375 c -0.390625,0 -0.59375,0 -0.59375,0.359375 C 0.953125,0 1.140625,0 1.265625,0 1.65625,0 2.0625,-0.046875 2.453125,-0.046875 h 2.6875 C 5.59375,-0.046875 6.09375,0 6.546875,0 c 0.1875,0 0.4375,0 0.4375,-0.375 0,-0.21875 -0.125,-0.21875 -0.578125,-0.21875 -1.640625,0 -1.671875,-0.15625 -1.671875,-0.453125 0,-0.109375 0.03125,-0.28125 0.078125,-0.421875 z m 0,0"
               id="path23" />
          </g>
        </g>
      </g>
    </g>
    <g
       inkscape:label=""
       transform="matrix(1.4999999,0,0,1.4999999,156.78531,98.65053)"
       id="g31">
      <g
         id="g30"
         transform="matrix(0.352778,0,0,0.352778,-1.03933,-0.722665)">
        <g
           style="fill:#000000;fill-opacity:1"
           id="g29">
          <g
             id="g28"
             transform="translate(1.993,16.111)">
            <path
               style="stroke:none"
               d="M 6.140625,-6.734375 H 8.125 c 1.5625,0 1.6875,0.359375 1.6875,0.953125 0,0.265625 -0.046875,0.5625 -0.140625,1.015625 -0.046875,0.078125 -0.0625,0.1875 -0.0625,0.21875 0,0.140625 0.078125,0.234375 0.21875,0.234375 0.171875,0 0.1875,-0.09375 0.265625,-0.421875 l 1.203125,-4.8125 c 0,-0.078125 -0.0625,-0.203125 -0.203125,-0.203125 -0.1875,0 -0.203125,0.078125 -0.296875,0.4375 -0.421875,1.546875 -0.84375,1.984375 -2.640625,1.984375 h -1.875 L 7.625,-12.6875 c 0.1875,-0.71875 0.21875,-0.78125 1.078125,-0.78125 h 2.765625 c 2.578125,0 2.953125,0.765625 2.953125,2.234375 0,0.125 0,0.578125 -0.0625,1.109375 -0.03125,0.09375 -0.0625,0.359375 -0.0625,0.4375 0,0.171875 0.09375,0.234375 0.21875,0.234375 0.15625,0 0.234375,-0.09375 0.28125,-0.46875 l 0.421875,-3.609375 c 0,-0.0625 0.04687,-0.265625 0.04687,-0.3125 0,-0.21875 -0.1875,-0.21875 -0.5625,-0.21875 H 4.92187 c -0.390625,0 -0.609375,0 -0.609375,0.375 0,0.21875 0.15625,0.21875 0.5,0.21875 1.28125,0 1.28125,0.140625 1.28125,0.375 0,0.09375 -0.015625,0.1875 -0.078125,0.40625 L 3.21875,-1.53125 C 3.03125,-0.8125 3,-0.59375 1.546875,-0.59375 c -0.390625,0 -0.59375,0 -0.59375,0.359375 C 0.953125,0 1.140625,0 1.265625,0 1.65625,0 2.0625,-0.046875 2.453125,-0.046875 h 2.6875 C 5.59375,-0.046875 6.09375,0 6.546875,0 c 0.1875,0 0.4375,0 0.4375,-0.375 0,-0.21875 -0.125,-0.21875 -0.578125,-0.21875 -1.640625,0 -1.671875,-0.15625 -1.671875,-0.453125 0,-0.109375 0.03125,-0.28125 0.078125,-0.421875 z m 0,0"
               id="path27" />
          </g>
        </g>
      </g>
    </g>
  </g>
</svg>
