<?xml version="1.0" encoding="UTF-8" standalone="no"?>
<!-- Created with Inkscape (http://www.inkscape.org/) -->

<svg
   width="55.646667mm"
   height="54.808578mm"
   viewBox="0 0 55.646667 54.808578"
   version="1.1"
   id="svg8469"
   sodipodi:docname="/tmp/ink_ext_XXXXXX.svgS0S5U1"
   xmlns:inkscape="http://www.inkscape.org/namespaces/inkscape"
   xmlns:sodipodi="http://sodipodi.sourceforge.net/DTD/sodipodi-0.dtd"
   xmlns="http://www.w3.org/2000/svg"
   xmlns:svg="http://www.w3.org/2000/svg">
  <sodipodi:namedview
     id="namedview8471"
     pagecolor="#ffffff"
     bordercolor="#999999"
     borderopacity="1"
     inkscape:showpageshadow="0"
     inkscape:pageopacity="0"
     inkscape:pagecheckerboard="0"
     inkscape:deskcolor="#d1d1d1"
     inkscape:document-units="mm"
     showgrid="true"
     inkscape:zoom="1.0708779"
     inkscape:cx="273.60729"
     inkscape:cy="641.52972"
     inkscape:window-width="1920"
     inkscape:window-height="1029"
     inkscape:window-x="0"
     inkscape:window-y="27"
     inkscape:window-maximized="1"
     inkscape:current-layer="layer1">
    <inkscape:grid
       type="xygrid"
       id="grid11147"
       spacingx="1.3229167"
       spacingy="1.3229167" />
  </sodipodi:namedview>
  <defs
     id="defs8466">
    <marker
       style="overflow:visible"
       id="Arrow2"
       refX="0"
       refY="0"
       orient="auto-start-reverse"
       inkscape:stockid="Arrow2"
       markerWidth="7.6999998"
       markerHeight="5.5999999"
       viewBox="0 0 7.7 5.6"
       inkscape:isstock="true"
       inkscape:collect="always"
       preserveAspectRatio="xMidYMid">
      <path
         transform="scale(0.7)"
         d="M -2,-4 9,0 -2,4 c 2,-2.33 2,-5.66 0,-8 z"
         style="fill:context-stroke;fill-rule:evenodd;stroke:none"
         id="arrow2L" />
    </marker>
    <clipPath
       id="clipPath3497">
      <path
         d="m 7,6 h 6 v 8.515625 H 7 Z m 0,0"
         id="path928" />
    </clipPath>
    <clipPath
       id="clipPath4143">
      <path
         d="m 7,6 h 7 v 8.515625 H 7 Z m 0,0"
         id="path1449" />
    </clipPath>
    <clipPath
       id="clipPath9160">
      <path
         d="M 0,0 H 13 V 11.933594 H 0 Z m 0,0"
         id="path5681" />
    </clipPath>
    <clipPath
       id="clipPath5075">
      <path
         d="m 13,0 h 7 v 11.933594 h -7 z m 0,0"
         id="path6675" />
    </clipPath>
    <clipPath
       id="clipPath9841">
      <path
         d="M 0,0 H 8.34375 V 7.410156 H 0 Z m 0,0"
         id="path5850" />
    </clipPath>
    <clipPath
       id="clipPath8874">
      <path
         d="M 0,0 H 6.996094 V 7.410156 H 0 Z m 0,0"
         id="path61" />
    </clipPath>
  </defs>
  <g
     inkscape:label="Layer 1"
     inkscape:groupmode="layer"
     id="layer1"
     transform="translate(-104.99333,-165.36268)">
    <path
       style="fill:#ffffff;stroke:#000000;stroke-width:0.3;stroke-linejoin:bevel;stroke-miterlimit:1;stroke-dasharray:1.8, 1.8;stroke-dashoffset:0;marker-start:url(#Arrow2);marker-end:url(#Arrow2)"
       d="m 158.75,171.97917 h -52.91667 v 46.30208"
       id="path17948"
       inkscape:export-filename="eight.svg"
       inkscape:export-xdpi="96"
       inkscape:export-ydpi="96" />
    <path
       style="fill:#ffffff;stroke:#000000;stroke-width:0.6;stroke-linejoin:bevel;stroke-miterlimit:1;stroke-dasharray:none;stroke-dashoffset:0;marker-end:url(#Arrow2)"
       d="m 105.83333,171.97917 h 33.07292"
       id="path18802" />
    <path
       style="fill:#ffffff;stroke:#000000;stroke-width:0.6;stroke-linejoin:bevel;stroke-miterlimit:1;stroke-dasharray:none;stroke-dashoffset:0;marker-end:url(#Arrow2)"
       d="m 105.68629,171.87077 26.60538,19.64616"
       id="path18846"
       inkscape:transform-center-x="-13.064532"
       inkscape:transform-center-y="9.9922111" />
    <path
       style="fill:#ffffff;stroke:#000000;stroke-width:0.600001;stroke-linejoin:bevel;stroke-miterlimit:1;stroke-dasharray:none;stroke-dashoffset:0;marker-end:url(#Arrow2)"
       d="m 142.04501,171.91618 -5.91986,18.06185"
       id="path19616"
       inkscape:transform-center-x="4.6778687"
       inkscape:transform-center-y="10.159646"
       sodipodi:nodetypes="cc" />
    <g
       inkscape:label=""
       transform="translate(122.76064,165.36267)"
       id="g22063">
      <g
         id="g22061"
         transform="matrix(0.352778,0,0,0.352778,-0.192925,0.00639395)">
        <g
           style="fill:#000000;fill-opacity:1"
           id="g22051">
          <g
             id="g22049"
             transform="translate(0,11.935)">
            <path
               style="stroke:none"
               d="m 5.75,-11.125 c 0,-0.46875 -0.359375,-0.828125 -0.84375,-0.828125 -0.65625,0 -1.21875,0.609375 -1.21875,1.1875 0,0.46875 0.34375,0.828125 0.84375,0.828125 0.640625,0 1.21875,-0.59375 1.21875,-1.1875 z m 0.4375,8.578125 c 0,-0.25 -0.265625,-0.25 -0.421875,-0.25 -0.203125,0 -0.328125,0 -0.390625,0.234375 -0.53125,1.8125 -1.421875,2.078125 -1.78125,2.078125 -0.171875,0 -0.265625,-0.046875 -0.265625,-0.375 0,-0.390625 0.15625,-0.78125 0.5625,-1.8125 l 1.15625,-2.96875 C 5.125,-5.875 5.1875,-6.078125 5.1875,-6.234375 c 0,-0.90625 -0.90625,-1.546875 -1.96875,-1.546875 -1.796875,0 -2.671875,2.3125 -2.671875,2.6875 0,0.234375 0.265625,0.234375 0.421875,0.234375 0.203125,0 0.328125,0 0.390625,-0.21875 0.53125,-1.8125 1.40625,-2.078125 1.78125,-2.078125 0.171875,0 0.265625,0.046875 0.265625,0.375 0,0.390625 -0.15625,0.765625 -0.5625,1.8125 L 1.6875,-2 c -0.09375,0.21875 -0.140625,0.4375 -0.140625,0.59375 0,0.90625 0.890625,1.546875 1.96875,1.546875 1.78125,0 2.671875,-2.3125 2.671875,-2.6875 z m 0,0"
               id="path22047" />
          </g>
        </g>
        <g
           clip-path="url(#clipPath3497)"
           clip-rule="nonzero"
           id="g22059">
          <g
             style="fill:#000000;fill-opacity:1"
             id="g22057">
            <g
               id="g22055"
               transform="translate(6.9689999,14.517)">
              <path
                 style="stroke:none"
                 d="m 4.140625,-7.5 c 0,-0.34375 -0.03125,-0.34375 -0.40625,-0.34375 C 2.84375,-7.078125 1.515625,-7.078125 1.25,-7.078125 H 1.03125 V -6.5625 H 1.25 c 0.421875,0 1.0625,-0.078125 1.53125,-0.234375 v 6.28125 H 1.125 V 0 c 0.5,-0.03125 1.75,-0.03125 2.3125,-0.03125 0.5625,0 1.828125,0 2.328125,0.03125 v -0.515625 h -1.625 z m 0,0"
                 id="path22053" />
            </g>
          </g>
        </g>
      </g>
    </g>
    <g
       inkscape:label=""
       transform="translate(117.63872,186.18284)"
       id="g22273">
      <g
         id="g22271"
         transform="matrix(0.352778,0,0,0.352778,-0.192925,0.00639395)">
        <g
           style="fill:#000000;fill-opacity:1"
           id="g22261">
          <g
             id="g22259"
             transform="translate(0,11.935)">
            <path
               style="stroke:none"
               d="m 5.75,-11.125 c 0,-0.46875 -0.359375,-0.828125 -0.84375,-0.828125 -0.65625,0 -1.21875,0.609375 -1.21875,1.1875 0,0.46875 0.34375,0.828125 0.84375,0.828125 0.640625,0 1.21875,-0.59375 1.21875,-1.1875 z m 0.4375,8.578125 c 0,-0.25 -0.265625,-0.25 -0.421875,-0.25 -0.203125,0 -0.328125,0 -0.390625,0.234375 -0.53125,1.8125 -1.421875,2.078125 -1.78125,2.078125 -0.171875,0 -0.265625,-0.046875 -0.265625,-0.375 0,-0.390625 0.15625,-0.78125 0.5625,-1.8125 l 1.15625,-2.96875 C 5.125,-5.875 5.1875,-6.078125 5.1875,-6.234375 c 0,-0.90625 -0.90625,-1.546875 -1.96875,-1.546875 -1.796875,0 -2.671875,2.3125 -2.671875,2.6875 0,0.234375 0.265625,0.234375 0.421875,0.234375 0.203125,0 0.328125,0 0.390625,-0.21875 0.53125,-1.8125 1.40625,-2.078125 1.78125,-2.078125 0.171875,0 0.265625,0.046875 0.265625,0.375 0,0.390625 -0.15625,0.765625 -0.5625,1.8125 L 1.6875,-2 c -0.09375,0.21875 -0.140625,0.4375 -0.140625,0.59375 0,0.90625 0.890625,1.546875 1.96875,1.546875 1.78125,0 2.671875,-2.3125 2.671875,-2.6875 z m 0,0"
               id="path22257" />
          </g>
        </g>
        <g
           clip-path="url(#clipPath4143)"
           clip-rule="nonzero"
           id="g22269">
          <g
             style="fill:#000000;fill-opacity:1"
             id="g22267">
            <g
               id="g22265"
               transform="translate(6.9689999,14.517)">
              <path
                 style="stroke:none"
                 d="m 6.03125,-2.5625 h -0.5 C 5.5,-2.3125 5.421875,-1.609375 5.234375,-1.5 5.140625,-1.40625 4.203125,-1.40625 4.03125,-1.40625 H 2.171875 C 2.625,-1.796875 3.71875,-2.703125 3.890625,-2.828125 c 1.328125,-1 2.140625,-1.609375 2.140625,-2.75 C 6.03125,-7 4.75,-7.84375 3.171875,-7.84375 c -1.34375,0 -2.5,0.765625 -2.5,1.90625 0,0.625 0.515625,0.8125 0.78125,0.8125 0.375,0 0.8125,-0.25 0.8125,-0.796875 0,-0.515625 -0.375,-0.765625 -0.75,-0.8125 C 2,-7.28125 2.625,-7.328125 2.875,-7.328125 c 1.109375,0 1.625,0.890625 1.625,1.765625 0,0.921875 -0.625,1.78125 -1.125,2.296875 l -2.59375,2.71875 c -0.109375,0.109375 -0.109375,0.125 -0.109375,0.34375 V 0 H 5.6875 Z m 0,0"
                 id="path22263" />
            </g>
          </g>
        </g>
      </g>
    </g>
    <g
       inkscape:label=""
       transform="translate(140.57624,180.98432)"
       id="g22501">
      <g
         id="g22499"
         transform="matrix(0.352778,0,0,0.352778,-0.225998,0.0835641)">
        <g
           clip-path="url(#clipPath9160)"
           clip-rule="nonzero"
           id="g28">
          <g
             style="fill:#000000;fill-opacity:1"
             id="g26">
            <g
               id="use24"
               transform="translate(0,11.935)">
              <path
                 style="stroke:none"
                 d="m 6.984375,-11.875 c -0.125,-0.296875 -0.203125,-0.296875 -0.34375,-0.296875 -0.203125,0 -0.21875,0.03125 -0.34375,0.28125 L 0.71875,-0.296875 C 0.703125,-0.265625 0.640625,-0.109375 0.640625,-0.09375 0.640625,-0.015625 0.65625,0 0.96875,0 H 12.3125 c 0.3125,0 0.328125,-0.015625 0.328125,-0.09375 0,-0.015625 -0.07813,-0.171875 -0.09375,-0.203125 z m -0.765625,1.015625 4.765625,9.890625 h -9.5625 z m 0,0"
                 id="path41" />
            </g>
          </g>
        </g>
        <g
           clip-path="url(#clipPath5075)"
           clip-rule="nonzero"
           id="g34">
          <g
             style="fill:#000000;fill-opacity:1"
             id="g32">
            <g
               id="use30"
               transform="translate(13.292,11.935)">
              <path
                 style="stroke:none"
                 d="m 5.75,-11.125 c 0,-0.46875 -0.359375,-0.828125 -0.84375,-0.828125 -0.65625,0 -1.21875,0.609375 -1.21875,1.1875 0,0.46875 0.34375,0.828125 0.84375,0.828125 0.640625,0 1.21875,-0.59375 1.21875,-1.1875 z m 0.4375,8.578125 c 0,-0.25 -0.265625,-0.25 -0.421875,-0.25 -0.203125,0 -0.328125,0 -0.390625,0.234375 -0.53125,1.8125 -1.421875,2.078125 -1.78125,2.078125 -0.171875,0 -0.265625,-0.046875 -0.265625,-0.375 0,-0.390625 0.15625,-0.78125 0.5625,-1.8125 l 1.15625,-2.96875 C 5.125,-5.875 5.1875,-6.078125 5.1875,-6.234375 c 0,-0.90625 -0.90625,-1.546875 -1.96875,-1.546875 -1.796875,0 -2.671875,2.3125 -2.671875,2.6875 0,0.234375 0.265625,0.234375 0.421875,0.234375 0.203125,0 0.328125,0 0.390625,-0.21875 0.53125,-1.8125 1.40625,-2.078125 1.78125,-2.078125 0.171875,0 0.265625,0.046875 0.265625,0.375 0,0.390625 -0.15625,0.765625 -0.5625,1.8125 L 1.6875,-2 c -0.09375,0.21875 -0.140625,0.4375 -0.140625,0.59375 0,0.90625 0.890625,1.546875 1.96875,1.546875 1.78125,0 2.671875,-2.3125 2.671875,-2.6875 z m 0,0"
                 id="path45" />
            </g>
          </g>
        </g>
      </g>
    </g>
    <g
       inkscape:label=""
       transform="translate(157.45237,173.35442)"
       id="g23444">
      <g
         id="g23442"
         transform="matrix(0.352778,0,0,0.352778,-0.00551215,-0.00167561)">
        <g
           clip-path="url(#clipPath9841)"
           clip-rule="nonzero"
           id="g23440">
          <g
             style="fill:#000000;fill-opacity:1"
             id="g23438">
            <g
               id="g23436"
               transform="translate(0,7.4109998)">
              <path
                 style="stroke:none"
                 d="M 4.484375,-4.015625 C 5,-4.6875 5.578125,-5.4375 6.0625,-6.015625 6.625,-6.65625 7.28125,-6.9375 8.046875,-6.953125 V -7.40625 C 7.75,-7.390625 7.140625,-7.375 6.828125,-7.375 6.375,-7.375 5.84375,-7.375 5.4375,-7.40625 v 0.453125 c 0.25,0.03125 0.375,0.203125 0.375,0.4375 0,0.3125 -0.171875,0.5 -0.25,0.625 l -1.28125,1.625 L 2.765625,-6.25 C 2.625,-6.4375 2.625,-6.46875 2.625,-6.5625 c 0,-0.203125 0.171875,-0.375 0.453125,-0.390625 V -7.40625 C 2.671875,-7.375 1.921875,-7.375 1.5,-7.375 c -0.46875,0 -1.015625,0 -1.390625,-0.03125 v 0.453125 c 0.921875,0 1.125,0.0625 1.546875,0.578125 l 1.984375,2.5625 C 3.671875,-3.765625 3.75,-3.671875 3.75,-3.609375 c 0,0.0625 -1.5,1.90625 -1.6875,2.140625 -0.765625,0.9375 -1.578125,1 -2.046875,1.015625 V 0 C 0.3125,-0.015625 0.90625,-0.03125 1.21875,-0.03125 c 0.34375,0 1.109375,0 1.421875,0.03125 V -0.453125 C 2.53125,-0.46875 2.25,-0.5 2.25,-0.890625 c 0,-0.3125 0.140625,-0.5 0.296875,-0.703125 l 1.4375,-1.765625 1.484375,1.953125 c 0.140625,0.1875 0.34375,0.4375 0.34375,0.5625 0,0.234375 -0.203125,0.375 -0.46875,0.390625 V 0 C 5.75,-0.03125 6.484375,-0.03125 6.921875,-0.03125 c 0.46875,0 1.015625,0 1.390625,0.03125 v -0.453125 c -0.859375,0 -1.109375,-0.03125 -1.53125,-0.5625 z m 0,0"
                 id="path23434" />
            </g>
          </g>
        </g>
      </g>
    </g>
    <g
       inkscape:label=""
       transform="translate(108.35782,217.23048)"
       id="g23707">
      <g
         id="g23705"
         transform="matrix(0.352778,0,0,0.352778,-0.121267,-0.00167561)">
        <g
           clip-path="url(#clipPath8874)"
           clip-rule="nonzero"
           id="g23703">
          <g
             style="fill:#000000;fill-opacity:1"
             id="g23701">
            <g
               id="g23699"
               transform="translate(0,7.4109998)">
              <path
                 style="stroke:none"
                 d="M 6.21875,-7.015625 C 6.359375,-7.1875 6.359375,-7.21875 6.359375,-7.25 c 0,-0.15625 -0.078125,-0.15625 -0.390625,-0.15625 H 0.734375 L 0.5625,-4.734375 H 0.875 C 1,-6.40625 1.1875,-7.125 3.171875,-7.125 h 2.09375 L 0.34375,-0.265625 C 0.34375,-0.015625 0.359375,0 0.71875,0 H 6.171875 L 6.40625,-3.09375 H 6.09375 C 5.953125,-1.1875 5.734375,-0.3125 3.640625,-0.3125 h -2.21875 z m 0,0"
                 id="path23697" />
            </g>
          </g>
        </g>
      </g>
    </g>
  </g>
</svg>
