<?xml version="1.0" encoding="UTF-8" standalone="no"?>
<!-- Created with Inkscape (http://www.inkscape.org/) -->

<svg
   width="64.101616mm"
   height="63.171013mm"
   viewBox="0 0 64.101616 63.171013"
   version="1.1"
   id="svg5"
   sodipodi:docname="/tmp/ink_ext_XXXXXX.svgEQ4GV1"
   xmlns:inkscape="http://www.inkscape.org/namespaces/inkscape"
   xmlns:sodipodi="http://sodipodi.sourceforge.net/DTD/sodipodi-0.dtd"
   xmlns="http://www.w3.org/2000/svg"
   xmlns:svg="http://www.w3.org/2000/svg">
  <sodipodi:namedview
     id="namedview7"
     pagecolor="#ffffff"
     bordercolor="#999999"
     borderopacity="1"
     inkscape:showpageshadow="0"
     inkscape:pageopacity="0"
     inkscape:pagecheckerboard="0"
     inkscape:deskcolor="#d1d1d1"
     inkscape:document-units="mm"
     showgrid="true"
     inkscape:zoom="2.1417558"
     inkscape:cx="478.1124"
     inkscape:cy="526.67069"
     inkscape:window-width="1920"
     inkscape:window-height="1029"
     inkscape:window-x="0"
     inkscape:window-y="27"
     inkscape:window-maximized="1"
     inkscape:current-layer="layer1">
    <inkscape:grid
       type="xygrid"
       id="grid686"
       spacingx="1.3229167"
       spacingy="1.3229167" />
  </sodipodi:namedview>
  <defs
     id="defs2">
    <marker
       style="overflow:visible"
       id="Arrow2"
       refX="0"
       refY="0"
       orient="auto-start-reverse"
       inkscape:stockid="Arrow2"
       markerWidth="7.6999998"
       markerHeight="5.5999999"
       viewBox="0 0 7.7 5.6"
       inkscape:isstock="true"
       inkscape:collect="always"
       preserveAspectRatio="xMidYMid">
      <path
         transform="scale(0.7)"
         d="M -2,-4 9,0 -2,4 c 2,-2.33 2,-5.66 0,-8 z"
         style="fill:context-stroke;fill-rule:evenodd;stroke:none"
         id="arrow2L" />
    </marker>
    <clipPath
       id="clipPath4489">
      <path
         d="M 19,1 H 34 V 13.675781 H 19 Z m 0,0"
         id="path1371" />
    </clipPath>
    <clipPath
       id="clipPath8852">
      <path
         d="M 22,1 H 37 V 13.675781 H 22 Z m 0,0"
         id="path5031" />
    </clipPath>
  </defs>
  <g
     inkscape:label="Layer 1"
     inkscape:groupmode="layer"
     id="layer1"
     transform="translate(-66.689645,-93.405233)">
    <path
       style="fill:#000000;fill-opacity:1;stroke:#000000;stroke-width:0.3;stroke-linejoin:bevel;stroke-miterlimit:1;stroke-dasharray:1.8, 1.8;stroke-dashoffset:0;stroke-opacity:1"
       d="M 99.218751,99.218751 V 152.13542"
       id="path792" />
    <path
       style="fill:#000000;fill-opacity:1;stroke:#000000;stroke-width:0.3;stroke-linejoin:bevel;stroke-miterlimit:1;stroke-dasharray:1.8, 1.8;stroke-dashoffset:0;stroke-opacity:1"
       d="M 125.67709,125.67709 H 72.760417"
       id="path1862" />
    <text
       xml:space="preserve"
       style="font-style:normal;font-variant:normal;font-weight:normal;font-stretch:normal;font-size:4.23333px;font-family:sans-serif;-inkscape-font-specification:sans-serif;text-align:center;text-anchor:middle;fill:#000000;fill-opacity:1;stroke:#000000;stroke-width:0.3;stroke-linejoin:bevel;stroke-miterlimit:1;stroke-dasharray:1.8, 1.8;stroke-dashoffset:0;stroke-opacity:1"
       x="99.552139"
       y="96.641342"
       id="text1918"><tspan
         sodipodi:role="line"
         id="tspan1916"
         style="font-style:normal;font-variant:normal;font-weight:normal;font-stretch:normal;font-family:sans-serif;-inkscape-font-specification:sans-serif;stroke-width:0.3"
         x="99.552139"
         y="96.641342">N</tspan></text>
    <text
       xml:space="preserve"
       style="font-style:normal;font-variant:normal;font-weight:normal;font-stretch:normal;font-size:4.23333px;font-family:sans-serif;-inkscape-font-specification:sans-serif;text-align:center;text-anchor:middle;fill:#000000;fill-opacity:1;stroke:#000000;stroke-width:0.3;stroke-linejoin:bevel;stroke-miterlimit:1;stroke-dasharray:1.8, 1.8;stroke-dashoffset:0;stroke-opacity:1"
       x="129.57466"
       y="126.94452"
       id="text1922"><tspan
         sodipodi:role="line"
         id="tspan1920"
         style="font-style:normal;font-variant:normal;font-weight:normal;font-stretch:normal;font-family:sans-serif;-inkscape-font-specification:sans-serif;stroke-width:0.3"
         x="129.57466"
         y="126.94452">E</tspan></text>
    <text
       xml:space="preserve"
       style="font-style:normal;font-variant:normal;font-weight:normal;font-stretch:normal;font-size:4.23333px;font-family:sans-serif;-inkscape-font-specification:sans-serif;text-align:center;text-anchor:middle;fill:#000000;fill-opacity:1;stroke:#000000;stroke-width:0.3;stroke-linejoin:bevel;stroke-miterlimit:1;stroke-dasharray:1.8, 1.8;stroke-dashoffset:0;stroke-opacity:1"
       x="68.791977"
       y="127.3577"
       id="text1926"><tspan
         sodipodi:role="line"
         id="tspan1924"
         style="font-style:normal;font-variant:normal;font-weight:normal;font-stretch:normal;font-family:sans-serif;-inkscape-font-specification:sans-serif;stroke-width:0.3"
         x="68.791977"
         y="127.3577">W</tspan></text>
    <text
       xml:space="preserve"
       style="font-style:normal;font-variant:normal;font-weight:normal;font-stretch:normal;font-size:4.23333px;font-family:sans-serif;-inkscape-font-specification:sans-serif;text-align:center;text-anchor:middle;fill:#000000;fill-opacity:1;stroke:#000000;stroke-width:0.3;stroke-linejoin:bevel;stroke-miterlimit:1;stroke-dasharray:1.8, 1.8;stroke-dashoffset:0;stroke-opacity:1"
       x="99.133247"
       y="156.3663"
       id="text1930"><tspan
         sodipodi:role="line"
         id="tspan1928"
         style="font-style:normal;font-variant:normal;font-weight:normal;font-stretch:normal;font-family:sans-serif;-inkscape-font-specification:sans-serif;stroke-width:0.3"
         x="99.133247"
         y="156.3663">S</tspan></text>
    <path
       style="fill:#000000;fill-opacity:1;stroke:#000000;stroke-width:0.6;stroke-linejoin:bevel;stroke-miterlimit:1;stroke-dasharray:none;stroke-dashoffset:0;stroke-opacity:1;marker-end:url(#Arrow2)"
       d="M 99.218751,125.67708 H 79.375002"
       id="path1932" />
    <path
       style="fill:#000000;fill-opacity:1;stroke:#000000;stroke-width:0.6;stroke-linejoin:bevel;stroke-miterlimit:1;stroke-dasharray:none;stroke-dashoffset:0;stroke-opacity:1;marker-end:url(#Arrow2)"
       d="m 99.218753,125.67709 v 11.90625"
       id="path2153"
       sodipodi:nodetypes="cc" />
    <g
       inkscape:label=""
       transform="translate(76.596876,119.12865)"
       id="g2952">
      <g
         id="g2950"
         transform="matrix(0.352778,0,0,0.352778,-0.143316,-0.00401283)">
        <g
           style="fill:#000000;fill-opacity:1"
           id="g2930">
          <g
             id="g2928"
             transform="translate(0,7.652)">
            <path
               style="stroke:none"
               d="m 8.515625,-6.515625 c 0.125,-0.25 0.203125,-0.390625 1.28125,-0.390625 v -0.734375 c -0.625,0.03125 -0.65625,0.03125 -1.359375,0.03125 -0.46875,0 -0.5,0 -1.484375,-0.03125 v 0.734375 c 0.46875,0 0.84375,0.09375 0.84375,0.203125 0,0.015625 0,0.046875 -0.078125,0.21875 L 5.703125,-2.0625 3.484375,-6.90625 h 0.9375 v -0.734375 c -0.390625,0.03125 -1.59375,0.03125 -2.0625,0.03125 -0.5,0 -1.5,0 -1.953125,-0.03125 V -6.90625 H 1.5 l 3.03125,6.578125 C 4.6875,0 4.71875,0.09375 5.109375,0.09375 c 0.28125,0 0.421875,-0.046875 0.578125,-0.390625 z m 0,0"
               id="path2926" />
          </g>
        </g>
        <g
           style="fill:#000000;fill-opacity:1"
           id="g2936">
          <g
             id="g2934"
             transform="translate(10.222,10.688)">
            <path
               style="stroke:none"
               d="m 3.53125,-3.796875 h 2.015625 c 1.65625,0 3.296875,-1.21875 3.296875,-2.59375 0,-0.921875 -0.78125,-1.765625 -2.296875,-1.765625 h -3.6875 c -0.234375,0 -0.34375,0 -0.34375,0.21875 0,0.125 0.109375,0.125 0.296875,0.125 0.71875,0 0.71875,0.09375 0.71875,0.21875 0,0.03125 0,0.09375 -0.046875,0.28125 L 1.875,-0.890625 C 1.765625,-0.46875 1.75,-0.34375 0.90625,-0.34375 c -0.21875,0 -0.34375,0 -0.34375,0.21875 C 0.5625,0 0.671875,0 0.734375,0 0.96875,0 1.203125,-0.03125 1.4375,-0.03125 H 2.828125 C 3.0625,-0.03125 3.3125,0 3.53125,0 3.640625,0 3.765625,0 3.765625,-0.234375 3.765625,-0.34375 3.65625,-0.34375 3.484375,-0.34375 2.765625,-0.34375 2.75,-0.4375 2.75,-0.546875 2.75,-0.609375 2.765625,-0.6875 2.765625,-0.75 Z m 0.875,-3.546875 C 4.5,-7.796875 4.546875,-7.8125 5.015625,-7.8125 h 1.1875 c 0.890625,0 1.640625,0.28125 1.640625,1.171875 0,0.3125 -0.15625,1.328125 -0.703125,1.890625 -0.203125,0.203125 -0.78125,0.65625 -1.875,0.65625 h -1.6875 z m 0,0"
               id="path2932" />
          </g>
        </g>
        <g
           clip-path="url(#clipPath4489)"
           clip-rule="nonzero"
           id="g2948">
          <g
             style="fill:#000000;fill-opacity:1"
             id="g2946">
            <g
               id="g2940"
               transform="translate(18.747253,10.688)">
              <path
                 style="stroke:none"
                 d="m 5.125,-8.515625 c 0,-0.015625 0.078125,-0.203125 0.078125,-0.21875 0,-0.140625 -0.125,-0.234375 -0.21875,-0.234375 -0.0625,0 -0.171875,0 -0.265625,0.265625 l -4,11.25 c 0,0.015625 -0.078125,0.1875 -0.078125,0.21875 0,0.140625 0.125,0.21875 0.21875,0.21875 0.078125,0 0.1875,-0.015625 0.265625,-0.265625 z m 0,0"
                 id="path2938" />
            </g>
            <g
               id="g2944"
               transform="translate(24.600519,10.688)">
              <path
                 style="stroke:none"
                 d="m 8.921875,-8.3125 c 0,-0.109375 -0.09375,-0.109375 -0.109375,-0.109375 -0.03125,0 -0.078125,0 -0.171875,0.125 l -0.828125,1 C 7.75,-7.40625 7.515625,-7.8125 7.046875,-8.09375 6.53125,-8.421875 6.03125,-8.421875 5.84375,-8.421875 c -2.5625,0 -5.25,2.609375 -5.25,5.4375 0,1.96875 1.359375,3.234375 3.15625,3.234375 0.859375,0 1.953125,-0.28125 2.546875,-1.03125 0.140625,0.453125 0.390625,0.765625 0.484375,0.765625 0.0625,0 0.0625,-0.03125 0.078125,-0.03125 0.015625,-0.03125 0.109375,-0.4375 0.171875,-0.65625 L 7.21875,-1.46875 C 7.3125,-1.859375 7.359375,-2.03125 7.453125,-2.390625 7.5625,-2.84375 7.59375,-2.875 8.25,-2.890625 c 0.046875,0 0.1875,0 0.1875,-0.234375 0,-0.109375 -0.125,-0.109375 -0.15625,-0.109375 -0.203125,0 -0.421875,0.015625 -0.640625,0.015625 H 7 c -0.515625,0 -1.03125,-0.015625 -1.53125,-0.015625 -0.109375,0 -0.25,0 -0.25,0.203125 0,0.125 0.09375,0.125 0.09375,0.140625 H 5.625 c 0.9375,0 0.9375,0.09375 0.9375,0.265625 0,0.015625 -0.234375,1.21875 -0.453125,1.578125 C 5.65625,-0.375 4.703125,-0.09375 4,-0.09375 c -0.921875,0 -2.40625,-0.484375 -2.40625,-2.546875 0,-0.796875 0.28125,-2.625 1.4375,-3.984375 0.765625,-0.859375 1.875,-1.4375 2.921875,-1.4375 1.40625,0 1.90625,1.203125 1.90625,2.296875 0,0.203125 -0.046875,0.453125 -0.046875,0.625 0,0.109375 0.125,0.109375 0.15625,0.109375 0.140625,0 0.140625,-0.015625 0.1875,-0.234375 z m 0,0"
                 id="path2942" />
            </g>
          </g>
        </g>
      </g>
    </g>
    <g
       inkscape:label=""
       transform="translate(100.94406,141.45562)"
       id="g3139">
      <g
         id="g3137"
         transform="matrix(0.352778,0,0,0.352778,-0.143316,-0.00401283)">
        <g
           style="fill:#000000;fill-opacity:1"
           id="g3117">
          <g
             id="g3115"
             transform="translate(0,7.652)">
            <path
               style="stroke:none"
               d="m 8.515625,-6.515625 c 0.125,-0.25 0.203125,-0.390625 1.28125,-0.390625 v -0.734375 c -0.625,0.03125 -0.65625,0.03125 -1.359375,0.03125 -0.46875,0 -0.5,0 -1.484375,-0.03125 v 0.734375 c 0.46875,0 0.84375,0.09375 0.84375,0.203125 0,0.015625 0,0.046875 -0.078125,0.21875 L 5.703125,-2.0625 3.484375,-6.90625 h 0.9375 v -0.734375 c -0.390625,0.03125 -1.59375,0.03125 -2.0625,0.03125 -0.5,0 -1.5,0 -1.953125,-0.03125 V -6.90625 H 1.5 l 3.03125,6.578125 C 4.6875,0 4.71875,0.09375 5.109375,0.09375 c 0.28125,0 0.421875,-0.046875 0.578125,-0.390625 z m 0,0"
               id="path3113" />
          </g>
        </g>
        <g
           style="fill:#000000;fill-opacity:1"
           id="g3123">
          <g
             id="g3121"
             transform="translate(10.222,10.688)">
            <path
               style="stroke:none"
               d="m 10.796875,-6.84375 c 0.265625,-0.453125 0.53125,-0.90625 1.25,-0.96875 0.109375,-0.015625 0.21875,-0.03125 0.21875,-0.21875 0,-0.125 -0.109375,-0.125 -0.140625,-0.125 -0.03125,0 -0.109375,0.015625 -0.90625,0.015625 -0.359375,0 -0.71875,-0.015625 -1.078125,-0.015625 -0.0625,0 -0.203125,0 -0.203125,0.21875 0,0.109375 0.09375,0.125 0.15625,0.125 0.25,0 0.625,0.078125 0.625,0.453125 0,0.15625 -0.04687,0.234375 -0.171875,0.4375 l -3.25,5.71875 -0.4375,-6.234375 c 0,-0.140625 0.140625,-0.375 0.796875,-0.375 0.15625,0 0.28125,0 0.28125,-0.234375 0,-0.109375 -0.125,-0.109375 -0.1875,-0.109375 -0.40625,0 -0.859375,0.015625 -1.28125,0.015625 h -0.625 c -0.171875,0 -0.390625,-0.015625 -0.578125,-0.015625 -0.0625,0 -0.203125,0 -0.203125,0.21875 0,0.125 0.078125,0.125 0.28125,0.125 0.546875,0 0.546875,0 0.59375,0.734375 l 0.03125,0.4375 L 2.875,-1.203125 2.4375,-7.375 c 0,-0.125 0,-0.4375 0.8125,-0.4375 0.125,0 0.265625,0 0.265625,-0.21875 0,-0.125 -0.109375,-0.125 -0.1875,-0.125 -0.40625,0 -0.859375,0.015625 -1.28125,0.015625 h -0.625 C 1.25,-8.140625 1.03125,-8.15625 0.84375,-8.15625 c -0.0625,0 -0.203125,0 -0.203125,0.21875 0,0.125 0.09375,0.125 0.25,0.125 0.5625,0 0.578125,0.0625 0.609375,0.453125 L 2.015625,-0.03125 C 2.03125,0.171875 2.046875,0.25 2.1875,0.25 c 0.125,0 0.140625,-0.046875 0.25,-0.21875 L 6,-6.203125 6.4375,-0.03125 C 6.453125,0.171875 6.46875,0.25 6.609375,0.25 c 0.125,0 0.15625,-0.0625 0.25,-0.21875 z m 0,0"
               id="path3119" />
          </g>
        </g>
        <g
           clip-path="url(#clipPath8852)"
           clip-rule="nonzero"
           id="g3135">
          <g
             style="fill:#000000;fill-opacity:1"
             id="g3133">
            <g
               id="g3127"
               transform="translate(21.596176,10.688)">
              <path
                 style="stroke:none"
                 d="m 5.125,-8.515625 c 0,-0.015625 0.078125,-0.203125 0.078125,-0.21875 0,-0.140625 -0.125,-0.234375 -0.21875,-0.234375 -0.0625,0 -0.171875,0 -0.265625,0.265625 l -4,11.25 c 0,0.015625 -0.078125,0.1875 -0.078125,0.21875 0,0.140625 0.125,0.21875 0.21875,0.21875 0.078125,0 0.1875,-0.015625 0.265625,-0.265625 z m 0,0"
                 id="path3125" />
            </g>
            <g
               id="g3131"
               transform="translate(27.449444,10.688)">
              <path
                 style="stroke:none"
                 d="m 8.921875,-8.3125 c 0,-0.109375 -0.09375,-0.109375 -0.109375,-0.109375 -0.03125,0 -0.078125,0 -0.171875,0.125 l -0.828125,1 C 7.75,-7.40625 7.515625,-7.8125 7.046875,-8.09375 6.53125,-8.421875 6.03125,-8.421875 5.84375,-8.421875 c -2.5625,0 -5.25,2.609375 -5.25,5.4375 0,1.96875 1.359375,3.234375 3.15625,3.234375 0.859375,0 1.953125,-0.28125 2.546875,-1.03125 0.140625,0.453125 0.390625,0.765625 0.484375,0.765625 0.0625,0 0.0625,-0.03125 0.078125,-0.03125 0.015625,-0.03125 0.109375,-0.4375 0.171875,-0.65625 L 7.21875,-1.46875 C 7.3125,-1.859375 7.359375,-2.03125 7.453125,-2.390625 7.5625,-2.84375 7.59375,-2.875 8.25,-2.890625 c 0.046875,0 0.1875,0 0.1875,-0.234375 0,-0.109375 -0.125,-0.109375 -0.15625,-0.109375 -0.203125,0 -0.421875,0.015625 -0.640625,0.015625 H 7 c -0.515625,0 -1.03125,-0.015625 -1.53125,-0.015625 -0.109375,0 -0.25,0 -0.25,0.203125 0,0.125 0.09375,0.125 0.09375,0.140625 H 5.625 c 0.9375,0 0.9375,0.09375 0.9375,0.265625 0,0.015625 -0.234375,1.21875 -0.453125,1.578125 C 5.65625,-0.375 4.703125,-0.09375 4,-0.09375 c -0.921875,0 -2.40625,-0.484375 -2.40625,-2.546875 0,-0.796875 0.28125,-2.625 1.4375,-3.984375 0.765625,-0.859375 1.875,-1.4375 2.921875,-1.4375 1.40625,0 1.90625,1.203125 1.90625,2.296875 0,0.203125 -0.046875,0.453125 -0.046875,0.625 0,0.109375 0.125,0.109375 0.15625,0.109375 0.140625,0 0.140625,-0.015625 0.1875,-0.234375 z m 0,0"
                 id="path3129" />
            </g>
          </g>
        </g>
      </g>
    </g>
  </g>
</svg>
