<?xml version="1.0" encoding="UTF-8" standalone="no"?>
<!-- Created with Inkscape (http://www.inkscape.org/) -->

<svg
   width="81.882996mm"
   height="58.602207mm"
   viewBox="0 0 81.882996 58.602207"
   version="1.1"
   id="svg5"
   sodipodi:docname="omega.svg"
   inkscape:export-filename="two.svg"
   inkscape:export-xdpi="96"
   inkscape:export-ydpi="96"
   inkscape:version="1.2.1 (1:1.2.1+202210291244+9c6d41e410)"
   xmlns:inkscape="http://www.inkscape.org/namespaces/inkscape"
   xmlns:sodipodi="http://sodipodi.sourceforge.net/DTD/sodipodi-0.dtd"
   xmlns="http://www.w3.org/2000/svg"
   xmlns:svg="http://www.w3.org/2000/svg">
  <sodipodi:namedview
     id="namedview7"
     pagecolor="#ffffff"
     bordercolor="#999999"
     borderopacity="1"
     inkscape:showpageshadow="0"
     inkscape:pageopacity="0"
     inkscape:pagecheckerboard="0"
     inkscape:deskcolor="#d1d1d1"
     inkscape:document-units="mm"
     showgrid="true"
     inkscape:zoom="1.0708779"
     inkscape:cx="328.70227"
     inkscape:cy="398.73827"
     inkscape:window-width="1920"
     inkscape:window-height="1029"
     inkscape:window-x="0"
     inkscape:window-y="27"
     inkscape:window-maximized="1"
     inkscape:current-layer="layer1">
    <inkscape:grid
       type="xygrid"
       id="grid9"
       spacingx="1.3229167"
       spacingy="1.3229167" />
  </sodipodi:namedview>
  <defs
     id="defs2">
    <marker
       style="overflow:visible"
       id="Arrow2"
       refX="0"
       refY="0"
       orient="auto-start-reverse"
       inkscape:stockid="Arrow2"
       markerWidth="7.6999998"
       markerHeight="5.5999999"
       viewBox="0 0 7.7 5.6"
       inkscape:isstock="true"
       inkscape:collect="always"
       preserveAspectRatio="xMidYMid">
      <path
         transform="scale(0.7)"
         d="M -2,-4 9,0 -2,4 c 2,-2.33 2,-5.66 0,-8 z"
         style="fill:context-stroke;fill-rule:evenodd;stroke:none"
         id="arrow2L" />
    </marker>
    <clipPath
       id="clipPath6469">
      <path
         d="M 0,0 H 9 V 5.3125 H 0 Z m 0,0"
         id="path3024" />
    </clipPath>
    <clipPath
       id="clipPath1674">
      <path
         d="M 0,0 H 7 V 8.300781 H 0 Z m 0,0"
         id="path9418" />
    </clipPath>
  </defs>
  <g
     inkscape:label="Layer 1"
     inkscape:groupmode="layer"
     id="layer1"
     transform="translate(-47.625001,-53.994662)">
    <path
       style="fill:#000000;stroke-width:0.264583"
       d="M 47.624999,89.958332 105.83333,58.208333"
       id="path171"
       inkscape:export-filename="one.pdf"
       inkscape:export-xdpi="96"
       inkscape:export-ydpi="96" />
    <path
       style="fill:#000000;stroke-width:0.264583"
       d="M 105.83333,89.958332 H 50.270833"
       id="path173" />
    <circle
       style="fill:#ffffff;fill-opacity:1;stroke:#000000;stroke-width:0.3;stroke-dasharray:1.8, 1.8;stroke-dashoffset:0;stroke-opacity:1"
       id="path9129"
       cx="85.989586"
       cy="85.989586"
       r="26.458332" />
    <path
       style="fill:#ffffff;fill-opacity:1;stroke:#000000;stroke-width:0.4;stroke-dasharray:none;stroke-opacity:1;marker-end:url(#Arrow2)"
       d="M 112.44792,85.989585 H 85.989584 L 102.97825,69.291831"
       id="path9237"
       sodipodi:nodetypes="ccc" />
    <path
       style="fill:#ffffff;fill-opacity:1;stroke:#000000;stroke-width:0.4;stroke-dasharray:none;stroke-dashoffset:0;stroke-opacity:1;marker-end:url(#Arrow2)"
       d="m 103.1875,85.989585 c 0,0 -0.31135,-6.782153 -3.317863,-9.858816"
       id="path11749"
       sodipodi:nodetypes="cc" />
    <path
       style="fill:#ffffff;fill-opacity:1;stroke:#000000;stroke-width:0.4;stroke-dasharray:none;stroke-dashoffset:0;stroke-opacity:1;marker-end:url(#Arrow2)"
       d="m 115.73924,75.249771 c 0,0 -0.93423,-11.083065 -14.48439,-17.232202"
       id="path11771"
       sodipodi:nodetypes="cc" />
    <text
       xml:space="preserve"
       style="font-style:normal;font-variant:normal;font-weight:bold;font-stretch:normal;font-size:4.23333px;font-family:Arial;-inkscape-font-specification:'Arial Bold';fill:#000000;fill-opacity:1;stroke:#000000;stroke-width:0;stroke-dasharray:none;stroke-dashoffset:0;stroke-opacity:1"
       x="13.09806"
       y="115.62137"
       id="text11829"
       transform="matrix(0.75284548,-0.63147656,0.70687212,0.73537909,0,0)"><tspan
         sodipodi:role="line"
         style="font-style:normal;font-variant:normal;font-weight:bold;font-stretch:normal;font-size:4.23333px;font-family:Arial;-inkscape-font-specification:'Arial Bold';fill:#000000;stroke-width:0;stroke-dasharray:none"
         x="13.09806"
         y="115.62137"
         id="tspan11881">r</tspan></text>
    <g
       inkscape:label=""
       transform="translate(116.90219,53.956254)"
       id="g29305">
      <g
         id="surface1"
         transform="matrix(0.352778,0,0,0.352778,-0.0937066,0.0384086)">
        <g
           clip-path="url(#clipPath6469)"
           clip-rule="nonzero"
           id="g19">
          <g
             style="fill:#000000;fill-opacity:1"
             id="g17">
            <g
               id="use15"
               transform="translate(0,5.3130002)">
              <path
                 style="stroke:none"
                 d="M 4.328125,-1.671875 C 4.625,-2.21875 4.796875,-2.8125 4.796875,-3.015625 c 0,-0.265625 -0.140625,-0.515625 -0.453125,-0.515625 -0.75,0 -0.828125,1.265625 -0.84375,1.578125 C 3.484375,-1.765625 3.484375,-1.75 3.46875,-1.75 c -0.1875,0.1875 -0.703125,0.53125 -1.328125,0.53125 -0.796875,0 -1.25,-0.515625 -1.25,-1.1875 0,-0.359375 0.21875,-1.265625 1.046875,-2.390625 0.109375,-0.125 0.125,-0.15625 0.125,-0.265625 0,-0.140625 -0.109375,-0.25 -0.25,-0.25 -0.109375,0 -0.1875,0.078125 -0.203125,0.078125 -0.0625,0.0625 -1.34375,1.625 -1.34375,3.328125 0,1.21875 0.609375,2 1.625,2 0.84375,0 1.515625,-0.578125 1.78125,-0.859375 0.15625,0.359375 0.5,0.859375 1.28125,0.859375 1.03125,0 1.953125,-0.75 2.484375,-1.5625 0.71875,-1.140625 0.828125,-2.671875 0.828125,-2.828125 0,-0.921875 -0.546875,-1.125 -0.796875,-1.125 -0.453125,0 -0.90625,0.484375 -0.90625,0.921875 0,0.296875 0.234375,0.453125 0.34375,0.546875 0.3125,0.203125 0.578125,0.484375 0.578125,0.875 0,0.78125 -1.03125,1.859375 -2.265625,1.859375 -0.359375,0 -0.671875,-0.09375 -0.890625,-0.453125 z m 0,0"
                 id="path26" />
            </g>
          </g>
        </g>
      </g>
    </g>
    <g
       inkscape:label=""
       transform="translate(95.011739,80.107416)"
       id="g29386">
      <g
         id="g29384"
         transform="matrix(0.352778,0,0,0.352778,-0.192925,0.0312649)">
        <g
           clip-path="url(#clipPath1674)"
           clip-rule="nonzero"
           id="g29382">
          <g
             style="fill:#000000;fill-opacity:1"
             id="g29380">
            <g
               id="g29378"
               transform="translate(0,8.302)">
              <path
                 style="stroke:none"
                 d="m 6.53125,-5.859375 c 0,-2.09375 -1.234375,-2.53125 -1.96875,-2.53125 -0.9375,0 -2.140625,0.625 -3.03125,2.25 -0.609375,1.125 -0.984375,2.75 -0.984375,3.71875 0,1.734375 0.90625,2.515625 1.984375,2.515625 0.796875,0 1.859375,-0.46875 2.6875,-1.6875 1,-1.46875 1.3125,-3.359375 1.3125,-4.265625 z M 2.359375,-4.4375 c 0.171875,-0.6875 0.484375,-1.78125 0.84375,-2.40625 0.28125,-0.484375 0.765625,-1.109375 1.34375,-1.109375 0.5,0 0.71875,0.515625 0.71875,1.21875 C 5.265625,-5.96875 5,-4.9375 4.859375,-4.4375 Z m 2.359375,0.578125 c -0.734375,3.203125 -1.75,3.53125 -2.15625,3.53125 C 2.390625,-0.328125 2.140625,-0.375 1.96875,-0.75 1.828125,-1.078125 1.828125,-1.546875 1.828125,-1.546875 c 0,-0.6875 0.265625,-1.796875 0.390625,-2.3125 z m 0,0"
                 id="path29376" />
            </g>
          </g>
        </g>
      </g>
    </g>
    <text
       xml:space="preserve"
       style="font-style:normal;font-variant:normal;font-weight:normal;font-stretch:normal;font-size:4.23333px;font-family:Arial;-inkscape-font-specification:Arial;text-align:center;text-anchor:middle;fill:#000000;fill-opacity:1;stroke:#000000;stroke-width:0;stroke-dasharray:none;stroke-dashoffset:0;stroke-opacity:1"
       x="119.43626"
       y="60.876694"
       id="text29401"><tspan
         sodipodi:role="line"
         id="tspan29399"
         style="font-style:normal;font-variant:normal;font-weight:normal;font-stretch:normal;font-family:Arial;-inkscape-font-specification:Arial;stroke-width:0"
         x="119.43626"
         y="60.876694">decreasing</tspan></text>
  </g>
</svg>
